<svg width="128" height="128" viewBox="0 0 128 128" fill="none" xmlns="http://www.w3.org/2000/svg">
<g clip-path="url(#clip0_138_93)">
<mask id="path-1-inside-1_138_93" fill="white">
<path fill-rule="evenodd" clip-rule="evenodd" d="M41.1694 127.183C41.1695 127.479 41.1718 127.775 41.2046 128.071C41.4048 128.071 41.5733 128.071 41.7604 128.046C41.8474 127.91 41.8456 127.783 41.8439 127.659L41.8436 127.641C41.8365 127.075 41.8704 126.51 41.9043 125.946L41.9043 125.946C41.935 125.435 41.9656 124.924 41.9657 124.414C41.966 123.525 42.0067 122.639 42.0475 121.752L42.0475 121.752C42.0872 120.888 42.1269 120.025 42.1291 119.16C42.1298 118.889 42.1248 118.617 42.1198 118.345L42.1198 118.344C42.1091 117.762 42.0984 117.18 42.1435 116.602L42.1552 116.449C42.2231 115.562 42.292 114.66 42.7961 113.871C42.8855 113.731 42.934 113.569 42.9663 113.405C43.0267 113.099 43.2001 112.861 43.4224 112.66C44.1482 112.003 45.0048 111.851 45.9017 112.164C46.0217 112.205 46.1417 112.247 46.2617 112.289L46.2619 112.289C47.507 112.724 48.7515 113.158 50.0207 113.517C52.9695 114.351 55.9694 114.921 59.019 115.223C59.2868 115.25 59.4974 115.341 59.6475 115.564C59.6992 115.641 59.7515 115.718 59.8039 115.794C60.1716 116.332 60.5386 116.868 60.6835 117.528C60.7541 117.85 60.8531 118.17 61.0033 118.469C61.1929 118.847 61.2684 119.248 61.2686 119.672C61.2686 119.794 61.2671 119.916 61.2656 120.039C61.2599 120.496 61.2543 120.954 61.3292 121.41C61.4482 122.135 61.5046 122.858 61.4275 123.601C61.4187 123.686 61.4097 123.771 61.4008 123.856L61.4006 123.858C61.308 124.737 61.2149 125.621 61.2742 126.506C61.2812 126.61 61.285 126.714 61.2889 126.819C61.3046 127.244 61.3204 127.673 61.5441 128.071C62.1715 128.071 62.7656 128.071 63.3786 128.046C63.4551 127.921 63.4582 127.802 63.4611 127.686C63.4621 127.647 63.4631 127.608 63.4668 127.57C63.497 127.264 63.4466 126.965 63.396 126.666C63.3518 126.405 63.3075 126.144 63.3169 125.876C63.3437 125.107 63.3354 124.336 63.3192 123.567C63.3166 123.444 63.3164 123.321 63.3162 123.198C63.3156 122.822 63.315 122.445 63.2475 122.084C63.2089 121.878 63.1745 121.67 63.1402 121.462C63.0394 120.853 62.9385 120.242 62.7283 119.656C62.6964 119.567 62.6875 119.47 62.689 119.375C62.6934 119.093 62.6918 118.811 62.6902 118.529V118.529C62.6869 117.959 62.6836 117.39 62.73 116.819C62.769 116.34 62.9617 116.026 63.3818 115.807C63.3913 115.902 63.4041 115.996 63.4169 116.09L63.4169 116.09C63.4426 116.278 63.468 116.464 63.4661 116.654C63.456 117.652 63.5759 118.64 63.7208 119.623C64.1181 122.318 64.4584 125.018 64.6072 127.74C64.6138 127.86 64.6261 127.976 64.7419 128.071C64.9182 128.071 65.0634 128.071 65.2279 128.045C65.3237 127.889 65.3194 127.741 65.3152 127.598C65.3149 127.588 65.3147 127.579 65.3144 127.569C65.2936 126.765 65.2339 125.963 65.1504 125.164C64.9468 123.214 64.6887 121.272 64.4305 119.329C64.3801 118.95 64.3297 118.57 64.2797 118.191C64.1759 117.404 64.1559 116.61 64.1821 115.817C64.1823 115.81 64.1824 115.804 64.1824 115.797C64.1825 115.789 64.1824 115.782 64.1824 115.774L64.1822 115.757V115.757C64.1806 115.635 64.1788 115.497 64.3565 115.488C64.515 115.48 64.5463 115.602 64.5764 115.719C64.5783 115.727 64.5801 115.734 64.582 115.741C64.5836 115.747 64.5851 115.753 64.5867 115.759C64.5895 115.769 64.5925 115.779 64.5956 115.789C64.5977 115.796 64.5994 115.802 64.6009 115.809C64.6016 115.812 64.6022 115.815 64.6029 115.818C64.6038 115.823 64.6046 115.827 64.6055 115.832L64.6055 115.832C64.6072 115.841 64.6089 115.849 64.6111 115.858C65.1799 118.23 65.3312 120.651 65.447 123.073C65.4713 123.582 65.4704 124.092 65.4695 124.602V124.603C65.4681 125.323 65.4668 126.043 65.5366 126.761C65.5461 126.858 65.551 126.957 65.5558 127.055C65.573 127.404 65.5904 127.756 65.8108 128.071C66.3908 128.071 66.9375 128.071 67.5032 128.046C67.5616 127.959 67.5815 127.89 67.582 127.818C67.5828 127.683 67.5852 127.548 67.5875 127.412L67.5875 127.411C67.5954 126.956 67.6033 126.501 67.5546 126.046C67.5189 125.712 67.5154 125.377 67.5121 125.064C67.5117 125.028 67.5114 124.992 67.511 124.957C67.553 125.434 67.6277 125.93 67.704 126.437L67.704 126.437C67.7771 126.922 67.8518 127.418 67.9004 127.916C67.9062 127.976 67.9447 128.025 68.0139 128.071C68.2379 128.071 68.4299 128.071 68.6267 128.038C68.6292 127.904 68.6293 127.781 68.6294 127.662V127.662C68.6295 127.573 68.6296 127.487 68.6306 127.402C68.6361 126.961 68.6343 126.52 68.6324 126.079C68.6295 125.382 68.6266 124.686 68.6525 123.989C68.6614 123.751 68.693 123.515 68.7247 123.28C68.7624 122.999 68.8002 122.718 68.799 122.433C68.7958 121.605 68.8463 120.78 68.9736 119.959C69.0548 119.435 69.1128 118.907 69.1708 118.379C69.1891 118.212 69.2074 118.045 69.2265 117.878C69.294 117.287 69.4419 116.714 69.5898 116.14C69.6576 115.877 69.7255 115.615 69.7855 115.35L69.7858 115.349C69.853 115.053 69.8535 115.05 70.1734 115.011C70.8781 114.926 71.5807 114.827 72.2822 114.717C75.4832 114.214 78.6006 113.394 81.6501 112.302C82.0795 112.148 82.5035 111.981 82.9276 111.813C83.4375 111.612 83.9475 111.41 84.4671 111.232C84.9876 111.054 85.4934 111.053 86.0012 111.167C86.2823 111.23 86.5522 111.411 86.7078 111.666C86.8987 111.978 87.0348 112.325 87.0475 112.701L87.0488 112.74V112.74C87.0871 113.875 87.1253 115.011 86.9395 116.139C86.9272 116.213 86.9196 116.289 86.9121 116.366C86.8957 116.529 86.8794 116.693 86.8171 116.837C86.5174 117.529 86.4698 118.25 86.4537 118.989C86.444 119.431 86.6084 119.795 86.8039 120.161C86.9122 120.363 87.0856 120.464 87.3243 120.471C87.8021 120.485 88.4238 120.025 88.5406 119.554C88.6534 119.1 88.6658 118.646 88.5695 118.184C88.3348 117.057 88.1855 115.919 88.1453 114.767C88.0681 112.551 88.7888 110.604 90.1469 108.875C90.1663 108.851 90.1857 108.826 90.2051 108.802C90.3398 108.631 90.4739 108.462 90.5828 108.272C90.7326 108.011 90.9404 107.814 91.2042 107.657C91.9373 107.221 92.6435 106.743 93.3462 106.26C99.0382 102.347 103.815 97.5323 107.618 91.7601C107.676 91.6716 107.735 91.5835 107.795 91.4953L107.795 91.4946C108.007 91.1792 108.219 90.8633 108.393 90.5279C108.63 90.0696 108.658 89.4254 107.926 89.1407C107.336 88.9115 106.797 88.5784 106.258 88.2457L106.258 88.2454C106.111 88.1546 105.964 88.0638 105.816 87.9752C105.729 87.9233 105.675 87.8618 105.676 87.7503C105.68 87.4619 105.679 87.1734 105.678 86.8906V86.8892L105.678 86.8374C105.678 86.7486 105.678 86.6605 105.678 86.5731C105.774 86.5342 105.83 86.5672 105.881 86.5966C105.891 86.6025 105.901 86.6083 105.911 86.6133C106.005 86.6612 106.095 86.7173 106.186 86.7733L106.186 86.7734C106.206 86.786 106.226 86.7985 106.246 86.8109L106.299 86.8433C106.333 86.8646 106.368 86.8859 106.402 86.9072C106.444 86.9329 106.485 86.9586 106.527 86.9844L106.529 86.9857L106.529 86.9858C107.289 87.4569 108.049 87.9277 108.903 88.2256C109.386 88.3943 109.719 88.2834 109.964 87.8267C113.757 80.7602 115.793 73.2137 116.106 65.2057C116.25 61.513 116 57.8423 115.357 54.199C114.714 50.5615 113.705 47.0317 112.307 43.6135C106.389 29.1501 94.3375 18.1392 79.3922 13.5448C76.7857 12.7435 74.1297 12.1627 71.4277 11.7884C70.1715 11.6144 68.9112 11.4827 67.6466 11.4C67.5997 11.397 67.5528 11.3939 67.5059 11.3908C66.7373 11.3403 65.9674 11.2898 65.196 11.3065C64.7706 11.3157 64.6089 11.4914 64.5902 11.9209C64.5819 12.1102 64.6013 12.2973 64.6205 12.4842C64.6353 12.6269 64.65 12.7694 64.6524 12.9125C64.6575 13.2167 64.6582 13.5209 64.659 13.8252C64.6605 14.4447 64.662 15.0643 64.7003 15.6835C64.741 16.3415 64.6963 16.9971 64.6515 17.6527V17.6541C64.6132 18.2154 64.5749 18.7768 64.5902 19.3396C64.5966 19.5738 64.6121 19.8074 64.6277 20.0411C64.6521 20.409 64.6765 20.777 64.6654 21.1472C64.6491 21.6876 64.7896 21.8497 65.383 21.9613C65.4397 21.972 65.4983 21.9738 65.5566 21.9756H65.5567C65.5696 21.976 65.5826 21.9764 65.5955 21.9769C66.7679 22.0221 67.9366 22.1088 69.1027 22.2432C71.4132 22.5096 73.6829 22.9741 75.9117 23.6333C87.7756 27.1423 97.5116 35.8812 102.29 47.3019C104.273 52.0403 105.325 56.9784 105.457 62.1114C105.504 63.9134 105.444 65.7122 105.257 67.5072C105.08 69.2051 104.807 70.8857 104.424 72.5487C103.612 76.0738 102.351 79.4308 100.651 82.6234C100.4 83.0941 100.508 83.528 100.952 83.8258C101.105 83.9285 101.264 84.0223 101.422 84.1162L101.423 84.1168L101.424 84.1171C101.445 84.1296 101.466 84.1421 101.487 84.1547L101.516 84.1718C101.561 84.1982 101.605 84.2247 101.649 84.2515C101.662 84.2596 101.676 84.2671 101.69 84.2746C101.758 84.3119 101.826 84.3492 101.826 84.4489C101.826 84.7602 101.826 85.0714 101.826 85.398L101.826 85.7803C101.715 85.7123 101.607 85.6495 101.503 85.5888L101.503 85.5887C101.278 85.4576 101.069 85.3362 100.877 85.1931C100.543 84.9446 100.177 84.9278 99.7972 84.9683C99.4547 85.0048 99.1791 85.1546 98.9842 85.4635C98.206 86.6968 97.3574 87.8811 96.4391 89.014C90.8889 95.8616 83.8941 100.536 75.4165 102.976C73.1354 103.633 70.8087 104.055 68.45 104.306C68.22 104.33 67.9891 104.347 67.7626 104.363H67.7623L67.7614 104.363L67.7599 104.363C67.6567 104.371 67.5543 104.378 67.4534 104.386C67.4076 104.287 67.4105 104.206 67.4132 104.132L67.4132 104.131C67.4137 104.117 67.4142 104.104 67.4144 104.09C67.4145 104.083 67.4145 104.076 67.4143 104.07C67.3925 102.857 67.4134 101.644 67.4343 100.432C67.4499 99.5239 67.4656 98.6159 67.4633 97.7077C67.4628 97.535 67.5049 97.3765 67.5759 97.2285C67.7283 96.9109 67.7971 96.5825 67.7727 96.2308C67.7716 96.2148 67.7699 96.1984 67.7682 96.1818C67.7589 96.0921 67.749 95.9959 67.8267 95.9274C67.9748 95.7969 68.0557 95.6267 68.1366 95.4563C68.1569 95.4137 68.1771 95.371 68.1985 95.329C68.3162 95.0967 68.4905 94.9766 68.7657 94.9865C68.9922 94.9947 69.2191 94.9928 69.4461 94.9908C69.6222 94.9893 69.7983 94.9878 69.9743 94.9911C70.1543 94.9943 70.2973 94.9373 70.4128 94.8039C70.4966 94.707 70.4904 94.5933 70.4843 94.4812C70.4828 94.452 70.4812 94.4229 70.4812 94.3942C70.4831 91.2782 70.4836 88.1622 70.484 85.0461L70.4844 83.0271C70.4844 83.0111 70.4841 82.9951 70.4839 82.9791C70.4835 82.9606 70.4832 82.9421 70.4833 82.9237C70.4835 82.8988 70.4844 82.874 70.487 82.8495C70.5151 82.5893 70.5022 82.3294 70.4894 82.0694C70.4801 81.8821 70.4709 81.6947 70.4769 81.507C70.4837 81.2958 70.3044 81.1269 70.09 81.1325C69.7236 81.142 69.3585 81.1202 68.9937 81.0985H68.9928C68.7215 81.0823 68.4504 81.066 68.1791 81.0628C66.8999 81.0474 65.6202 81.0719 64.3419 81.1301C64.1274 81.1399 63.9166 81.1168 63.7059 81.0936C63.6235 81.0846 63.541 81.0755 63.4584 81.0684C63.3122 81.0559 63.1699 81.077 63.0275 81.098L63.0274 81.0981C62.9132 81.1149 62.799 81.1318 62.6827 81.1314C61.4353 81.1274 60.188 81.1278 58.9406 81.1282L58.3785 81.1283C58.1185 81.1284 57.8584 81.1284 57.5984 81.1284C57.5229 81.1284 57.4474 81.1273 57.3719 81.1261H57.3715C57.2219 81.1238 57.0723 81.1216 56.923 81.1282C56.5711 81.1437 56.3867 81.3124 56.3824 81.6549C56.3759 82.1742 56.3748 82.6935 56.3736 83.2128C56.3725 83.7474 56.3713 84.282 56.3643 84.8166C56.3599 85.152 56.3652 85.4875 56.3705 85.823V85.823C56.3805 86.4575 56.3905 87.0921 56.3349 87.7263C56.3184 87.9143 56.321 88.1056 56.3328 88.2942C56.3972 89.322 56.4297 90.3492 56.3153 91.3757C56.3047 91.4711 56.3012 91.5658 56.3298 91.6575C56.3796 91.8181 56.3791 91.983 56.3785 92.1477L56.3785 92.1507C56.3779 92.3262 56.3762 92.5018 56.3746 92.6774V92.678C56.3716 92.9999 56.3686 93.3218 56.372 93.6437C56.3722 93.6668 56.3723 93.6899 56.3724 93.7131L56.3725 93.7426L56.3725 93.7813C56.3728 94.0545 56.373 94.3287 56.4658 94.5929C56.5843 94.9302 56.6724 94.9897 57.0408 94.9897C59.6955 94.9891 62.3502 94.989 65.005 94.9889C65.242 94.9888 65.479 94.9889 65.7161 94.9906L65.7222 94.9906L65.7318 94.9906C65.8076 94.9908 65.8801 94.991 65.9373 95.0679C65.9787 95.1234 66.0222 95.1774 66.0656 95.2314C66.1779 95.3708 66.2902 95.5101 66.3657 95.676C66.7136 96.44 66.8552 97.2489 66.89 98.081C66.8921 98.1315 66.8906 98.1825 66.8892 98.2336C66.8855 98.3619 66.8819 98.4903 66.9344 98.6086C67.0042 98.7658 67.0027 98.9248 67.0011 99.0867L67.001 99.0958C66.9977 99.4539 66.9843 99.8117 66.9708 100.17V100.17C66.9519 100.676 66.9329 101.183 66.9424 101.69C66.9534 102.276 66.9505 102.863 66.9476 103.449V103.45C66.9465 103.669 66.9455 103.888 66.9451 104.107C66.9446 104.434 66.9425 104.434 66.6182 104.451L66.6162 104.451C64.5184 104.564 62.4241 104.527 60.3311 104.334C58.3703 104.153 56.4304 103.846 54.5201 103.375C46.459 101.387 39.6008 97.3425 33.9356 91.2769C32.1596 89.3754 30.5908 87.3124 29.2108 85.1062C29.1302 84.9775 29.0502 84.8575 28.91 84.7679C28.5097 84.5119 28.1413 84.5859 27.7946 84.8476C27.3016 85.2199 26.7802 85.5452 26.2411 85.8438C26.2306 85.8496 26.2201 85.856 26.2097 85.8626C26.2015 85.8678 26.1933 85.8732 26.1851 85.8786L26.185 85.8787C26.1155 85.9243 26.0424 85.9723 25.9297 85.9476C25.9297 85.8418 25.9298 85.7357 25.93 85.6295V85.6272C25.9304 85.3457 25.9308 85.0631 25.9284 84.7806C25.9274 84.673 25.9694 84.6035 26.0632 84.5534C26.3413 84.4046 26.5952 84.2196 26.8492 84.0345C27.0451 83.8917 27.2411 83.7489 27.4483 83.6227C27.8063 83.4047 27.93 83.0874 27.791 82.6984C27.7434 82.5648 27.6763 82.4379 27.6095 82.3113C27.5933 82.2805 27.577 82.2497 27.561 82.2188C24.7657 76.8148 23.2441 71.07 22.9868 64.9946C22.8702 62.242 23.0213 59.5008 23.4515 56.7754C23.9482 53.6286 24.793 50.5812 25.9986 47.6334C30.8358 35.8059 40.8751 26.8766 53.1943 23.4433C55.4114 22.8254 57.6653 22.406 59.9553 22.1735C60.4404 22.1243 60.9267 22.0925 61.4128 22.0608L61.4129 22.0608C61.8014 22.0354 62.1897 22.0101 62.5774 21.9758C63.1533 21.9248 63.5182 21.5985 63.4736 21.0566C63.4619 20.9146 63.4585 20.7721 63.455 20.6296C63.4488 20.3706 63.4425 20.1114 63.3868 19.8541C63.3608 19.7338 63.3684 19.6057 63.376 19.4784V19.4784L63.376 19.4782C63.3784 19.4381 63.3808 19.398 63.3821 19.3583C63.3931 19.0289 63.4095 18.6995 63.426 18.3701C63.4496 17.8955 63.4733 17.421 63.4806 16.9467C63.4977 15.8336 63.475 14.7199 63.4523 13.6064L63.4523 13.6058L63.4523 13.6053L63.4523 13.6043C63.4482 13.4037 63.4441 13.2031 63.4403 13.0025C63.4376 12.8619 63.4307 12.7213 63.4239 12.5806C63.4135 12.3664 63.4031 12.152 63.4073 11.9373C63.4089 11.8539 63.3983 11.7748 63.3634 11.6956C63.2267 11.386 63.0883 11.2985 62.6849 11.3109C60.4684 11.3794 58.2649 11.5818 56.0733 11.9262C53.0022 12.4088 49.9959 13.1499 47.0676 14.1907C37.029 17.7585 28.8051 23.8101 22.461 32.3627C16.4069 40.5243 13.0883 49.7168 12.3919 59.8517C12.2269 62.254 12.2504 64.6589 12.4257 67.0627C12.5861 69.2629 12.8785 71.4442 13.3175 73.6045C14.2872 78.3764 15.8987 82.9229 18.1478 87.243C18.3619 87.6542 18.6 88.0419 18.9828 88.3188C19.0403 88.3604 19.0465 88.4124 19.0472 88.4713C19.0482 88.557 19.0481 88.6428 19.0481 88.7285L19.048 93.039C19.048 102.313 19.048 111.587 19.0483 120.861L19.0482 120.915V120.915C19.048 121.027 19.0478 121.14 19.0553 121.252C19.0654 121.405 19.1601 121.5 19.3058 121.5C19.4512 121.5 19.5465 121.405 19.5567 121.253C19.5641 121.142 19.5639 121.03 19.5636 120.919L19.5636 120.886L19.5636 120.862C19.5638 110.895 19.5638 100.929 19.5638 90.9628L19.5638 88.8271C19.5638 88.8059 19.5642 88.7846 19.5648 88.7633C19.5651 88.7514 19.5654 88.7395 19.5657 88.7277L19.5657 88.7275C19.5679 88.6537 19.57 88.58 19.5617 88.5074C19.5429 88.3417 19.6161 88.2453 19.7548 88.1658C19.8537 88.1091 19.9494 88.0465 20.045 87.9839C20.1576 87.9102 20.2702 87.8364 20.3882 87.7724C20.572 87.6727 20.749 87.5612 20.9259 87.4497L20.9268 87.4492C21.2099 87.2708 21.493 87.0924 21.8041 86.962L21.8418 86.9463C22.3091 86.7505 22.7776 86.5542 23.1685 86.2175C23.1998 86.1906 23.2283 86.2017 23.2747 86.2198C23.2778 86.221 23.2809 86.2222 23.2841 86.2234C23.2841 86.3377 23.2837 86.4526 23.2833 86.5679V86.5696C23.2824 86.8635 23.2814 87.1604 23.2867 87.4572C23.2893 87.6053 23.2112 87.6583 23.0913 87.7094C22.4377 87.988 21.8004 88.3 21.2055 88.6911C21.0758 88.7763 20.9428 88.8563 20.8097 88.9364L20.8086 88.9371L20.8084 88.9373L20.8083 88.9373L20.8082 88.9374C20.5167 89.1128 20.2252 89.2882 19.9693 89.5173C19.7448 89.7183 19.6948 89.9557 19.8386 90.2128C19.9307 90.3776 20.0274 90.5401 20.1274 90.7002C22.1116 93.8762 24.4075 96.8109 26.9949 99.5156C30.024 102.682 33.4061 105.416 37.1368 107.716C37.4853 107.931 37.7914 108.196 38.0369 108.509C38.3009 108.847 38.6084 109.136 38.9163 109.425C38.9783 109.484 39.0403 109.542 39.102 109.601C39.4615 109.943 39.8024 110.287 39.998 110.765C40.0783 110.96 40.1719 111.151 40.2656 111.341C40.4585 111.733 40.6514 112.126 40.728 112.567C40.758 112.74 40.8109 112.907 40.8637 113.075C40.9426 113.325 41.0215 113.575 41.0245 113.842C41.0296 114.283 41.0786 114.719 41.1275 115.156L41.1275 115.156C41.1748 115.578 41.2221 116 41.2299 116.425C41.234 116.645 41.2493 116.864 41.2647 117.083V117.084C41.2998 117.585 41.3348 118.085 41.2353 118.585C41.1768 118.879 41.169 119.172 41.1691 119.468C41.1695 121.035 41.1694 122.603 41.1694 124.171C41.1694 125.175 41.1694 126.179 41.1694 127.183ZM103.299 85.1256C103.251 85.0947 103.193 85.0717 103.125 85.1274C103.121 85.3081 103.121 85.4828 103.12 85.6542C103.119 85.8448 103.118 86.0314 103.113 86.218C103.109 86.3624 103.138 86.4701 103.281 86.5313C103.626 86.6792 103.939 86.8825 104.251 87.0858C104.384 87.1719 104.516 87.2581 104.651 87.3401C104.663 87.3468 104.674 87.3536 104.685 87.3604C104.821 87.4437 104.961 87.5298 105.154 87.5335C105.154 87.4284 105.153 87.3248 105.152 87.2221L105.152 87.219V87.2164C105.15 86.9721 105.148 86.7337 105.158 86.4957C105.165 86.31 105.105 86.1977 104.95 86.0883C104.661 85.8855 104.352 85.7187 104.043 85.552C103.791 85.4163 103.54 85.2806 103.299 85.1256ZM102.588 86.0617C102.421 86.1356 102.357 86.0581 102.356 85.9112C102.355 85.6431 102.355 85.375 102.356 85.1029V85.0991C102.356 84.9893 102.356 84.8788 102.356 84.7675C102.577 84.7557 102.602 84.8826 102.601 85.0378C102.6 85.1127 102.6 85.1875 102.599 85.2627L102.599 85.2708C102.598 85.5259 102.596 85.785 102.588 86.0617ZM24.2509 85.9977C24.2509 86.1397 24.251 86.2817 24.251 86.457C24.2551 86.5115 24.2534 86.5633 24.2518 86.6133C24.2485 86.7152 24.2454 86.8101 24.2915 86.9074C24.3561 86.8688 24.4198 86.8306 24.4828 86.7928L24.5592 86.7469C24.7961 86.6047 25.0244 86.4678 25.2537 86.3326C25.3282 86.2886 25.3897 86.2461 25.389 86.1459C25.3871 85.8666 25.3874 85.5873 25.3877 85.2958C25.3878 85.1848 25.388 85.0719 25.388 84.9567C25.1092 85.04 24.8901 85.1527 24.6742 85.2688C24.2509 85.4964 24.2509 85.5005 24.2509 85.9917V85.9977ZM68.1176 122.667L68.1176 124.185C67.959 123.86 67.9045 123.513 67.8571 123.168C67.7804 122.61 67.637 122.069 67.4935 121.526L67.4793 121.473C67.4728 121.448 67.4646 121.423 67.4565 121.399C67.4384 121.344 67.4203 121.289 67.4198 121.234C67.4177 120.99 67.398 120.747 67.3784 120.503C67.3493 120.145 67.3203 119.786 67.3478 119.425C67.3783 119.026 67.2878 118.649 67.154 118.28C67.0964 118.121 67.0661 117.962 67.0733 117.793C67.0808 117.617 67.0779 117.44 67.075 117.263V117.263C67.0698 116.943 67.0646 116.624 67.1209 116.305C67.1431 116.179 67.1726 116.076 67.2781 116.005C67.5037 115.853 67.7028 115.674 67.8954 115.365L67.8954 115.826C67.8954 116.152 67.8954 116.478 67.8954 116.805C67.8954 117.818 67.8955 118.831 67.8945 119.843L67.8945 119.853L67.8943 119.896C67.8937 120.069 67.893 120.242 67.9389 120.409C68.1243 121.082 68.1213 121.769 68.1183 122.485V122.485C68.118 122.545 68.1177 122.606 68.1176 122.667ZM66.7447 115.679C66.724 115.624 66.6782 115.631 66.6364 115.696C66.6351 115.749 66.6369 115.794 66.6795 115.785C66.7277 115.774 66.7621 115.725 66.7447 115.679ZM65.8423 115.646C65.9131 115.691 65.9373 115.738 65.8861 115.791C65.8618 115.816 65.8277 115.827 65.8026 115.792C65.7647 115.74 65.7738 115.688 65.8423 115.646ZM66.9337 126.529C66.9434 126.55 66.96 126.567 66.9855 126.594C66.986 126.585 66.9865 126.576 66.9869 126.567L66.9878 126.553L66.9878 126.553L66.9878 126.552C66.9906 126.504 66.9927 126.467 66.9878 126.431C66.9863 126.42 66.9868 126.407 66.9874 126.395C66.989 126.357 66.9907 126.318 66.9381 126.298C66.9213 126.441 66.9155 126.491 66.9337 126.529ZM66.7713 125.546C66.7604 125.565 66.761 125.589 66.7615 125.61C66.7623 125.644 66.7629 125.669 66.7141 125.648C66.6876 125.637 66.6759 125.565 66.6761 125.522C66.6782 125.05 66.5945 124.59 66.5107 124.13C66.491 124.021 66.4713 123.913 66.4527 123.804L66.4508 123.793L66.449 123.783C66.4401 123.732 66.4311 123.681 66.431 123.629C66.43 122.568 66.43 121.507 66.4301 120.403L66.4301 119.765C66.6915 120.342 66.8185 120.883 66.8248 121.445C66.837 122.544 66.8316 123.643 66.8258 124.742C66.8248 124.923 66.809 125.104 66.7923 125.294L66.7916 125.301C66.7896 125.324 66.7877 125.346 66.7857 125.369C66.7807 125.427 66.7757 125.486 66.7713 125.546ZM66.5763 127.602C66.5657 127.558 66.5394 127.516 66.4957 127.448L66.4957 127.448C66.4773 127.613 66.4757 127.755 66.5185 127.944C66.5714 127.748 66.5924 127.671 66.5763 127.602ZM65.2757 115.518C65.2739 115.552 65.2783 115.584 65.2825 115.615C65.2922 115.685 65.301 115.75 65.2348 115.817C65.229 115.796 65.2232 115.776 65.2174 115.756C65.2135 115.742 65.2096 115.729 65.2057 115.715C65.1821 115.634 65.1601 115.557 65.1432 115.48C65.1354 115.444 65.1287 115.38 65.1972 115.388C65.2478 115.394 65.2622 115.446 65.2757 115.518Z"/>
<path d="M58.4678 52.9236C58.2241 52.9914 58.0076 53.0513 57.7908 53.1098C57.6041 53.1602 57.4223 53.1808 57.2506 53.0547C57.1542 52.9838 57.0377 52.9841 56.9216 52.9844L56.9099 52.9844C55.8078 52.9861 54.7057 52.9869 53.6037 52.9845C53.4252 52.9841 53.2556 53.0261 53.0866 53.0681C52.9931 53.0912 52.8999 53.1144 52.8054 53.1303C52.6702 53.153 52.5413 53.1072 52.409 53.0602C52.2845 53.016 52.1571 52.9707 52.0186 52.9804C51.6291 53.0074 51.2387 53.0222 50.8483 53.037H50.8482C50.5873 53.0469 50.3265 53.0568 50.0659 53.0703C49.8592 53.0811 49.6526 53.097 49.4461 53.1129L49.4458 53.113C49.1443 53.1362 48.8428 53.1595 48.5409 53.1666C47.6483 53.1876 46.766 53.1076 45.9212 52.7875C44.782 52.3558 44.1885 51.5238 44.1036 50.3146C44.0915 50.1415 44.1341 49.9825 44.177 49.822C44.1797 49.8121 44.1823 49.8022 44.185 49.7923C44.3622 49.1271 44.4958 48.4553 44.5153 47.7646C44.5158 47.7484 44.5164 47.732 44.517 47.7156L44.5171 47.7147C44.5223 47.5744 44.5278 47.4284 44.4427 47.3162C44.2702 47.089 44.3628 46.9092 44.4711 46.6986L44.4816 46.6781C44.8518 45.9565 45.038 45.171 45.2186 44.3869C45.4258 43.4872 45.5867 42.578 45.7224 41.6648C45.744 41.5192 45.7914 41.3937 45.8729 41.2731C46.1407 40.8771 46.4061 40.4794 46.6716 40.0818C47.2347 39.2383 47.7978 38.3948 48.3832 37.5671C49.0301 36.6524 49.8528 35.8926 50.7419 35.2154C53.3971 33.193 56.3638 31.8692 59.6593 31.3063C60.5594 31.1525 61.4699 31.0941 62.3839 31.0857C62.6935 31.0828 62.9618 31.1922 63.2303 31.3179C63.3699 31.3832 63.4043 31.5144 63.438 31.643L63.4381 31.6434C63.443 31.6622 63.4479 31.6809 63.4531 31.6993C63.6876 32.5282 63.6944 33.3808 63.7011 34.2302L63.705 34.6919C63.718 36.2297 63.7311 37.768 63.6976 39.305C63.6649 40.8094 63.655 42.3133 63.647 43.8177C63.6439 44.3872 63.3737 44.5182 63.0199 44.5701C62.2035 44.6897 61.6079 45.144 61.1591 45.8127C60.7095 46.4826 60.4742 47.2377 60.3042 48.0164C60.053 49.1681 59.9781 50.3392 59.9812 51.5124C59.9826 52.0225 59.7647 52.3367 59.346 52.5648C59.0745 52.7128 58.7907 52.8279 58.4678 52.9236Z"/>
<path d="M63.7778 56.0268C64.5204 54.9665 65.1909 53.8937 65.7005 52.7274L65.703 52.7218C65.7357 52.6469 65.7675 52.5742 65.8312 52.5197C66.4859 51.9599 66.7913 51.2058 66.9625 50.3959C67.1891 49.3246 67.2707 48.2393 67.13 47.1465C67.0675 46.6603 66.9256 46.1985 66.6646 45.7792C66.3518 45.2767 65.9089 44.9272 65.3506 44.7477C64.9947 44.6333 64.8522 44.3825 64.8556 44.0568C64.8599 43.643 64.8545 43.229 64.8492 42.815C64.8378 41.9378 64.8265 41.0606 64.9069 40.1847C64.9174 40.0705 64.9168 39.9552 64.9162 39.8401C64.9161 39.8128 64.9159 39.7856 64.9159 39.7584C64.9161 39.2668 64.9145 38.7752 64.9129 38.2836C64.9091 37.1516 64.9054 36.0197 64.9235 34.8881C64.931 34.4202 64.9038 33.9542 64.8767 33.4884C64.8495 33.0206 64.8222 32.553 64.8301 32.0838C64.84 31.4952 65.1519 31.1933 65.7549 31.1682C67.0068 31.1161 68.237 31.2995 69.4609 31.5142C71.8452 31.9326 74.1095 32.7029 76.2193 33.9048C76.9407 34.3157 77.6317 34.7717 78.298 35.2663C78.4709 35.3947 78.6192 35.5425 78.7521 35.7119C79.2348 36.3275 79.7191 36.9417 80.2035 37.556C80.57 38.0208 80.9366 38.4857 81.3024 38.9511C82.5998 40.6018 83.4156 42.4732 83.837 44.522C84.0163 45.394 84.1035 46.2773 84.1196 47.1676L84.1198 47.1793C84.1224 47.3187 84.1249 47.4573 84.0348 47.5756C83.9046 47.7463 83.8936 47.941 83.892 48.147C83.8901 48.4016 83.8912 48.6562 83.8924 48.9108C83.895 49.4853 83.8976 50.0599 83.8647 50.6347C83.7528 52.5937 83.1929 54.4232 82.3043 56.1616C81.7636 57.2194 81.1151 58.2081 80.3896 59.1473C80.2952 59.2695 80.216 59.3928 80.1704 59.5461C80.0889 59.82 79.9212 60.0512 79.7552 60.2801L79.7312 60.3131C79.2439 60.986 78.6919 61.6052 78.1318 62.2172C77.8077 62.5714 77.478 62.9206 77.1484 63.2698L77.1482 63.27C76.4938 63.9632 75.8394 64.6565 75.2276 65.3891C73.9945 66.8658 72.867 68.4133 72.0021 70.1395C71.4265 71.2884 70.9868 72.4834 70.7934 73.7597C70.7348 74.1461 70.697 74.5347 70.6879 74.9265C70.6773 75.3798 70.5759 75.8169 70.4144 76.2404C70.2454 76.6834 69.9638 76.9148 69.4515 76.9111C68.4213 76.9037 67.3906 76.9428 66.3654 77.0686C66.2025 77.0885 66.0336 77.0793 65.8692 77.065C64.3264 76.9306 62.7798 76.9172 61.2332 76.9039H61.2329C61.1091 76.9028 60.9853 76.9018 60.8615 76.9006C60.6122 76.8984 60.3629 76.9245 60.1298 77.0214C60.0252 77.0649 59.9385 77.0697 59.8278 77.0269C59.4559 76.8829 59.0688 76.8912 58.6819 76.8995C58.5714 76.9018 58.4609 76.9042 58.3507 76.903C58.3054 76.9025 58.2368 76.91 58.2179 76.9391C58.0866 77.1411 57.9197 77.0908 57.7558 77.0415C57.7408 77.037 57.7258 77.0325 57.711 77.0282C57.7008 77.0253 57.6907 77.0224 57.6807 77.0198C57.2464 76.9043 56.9355 76.6196 56.6802 76.2658C56.3857 75.8578 56.2061 75.3948 56.0496 74.9215C55.9068 74.4898 55.8309 74.0437 55.755 73.5978C55.7299 73.45 55.7047 73.3022 55.6772 73.155C55.632 72.9135 55.6734 72.6738 55.7147 72.4351L55.7147 72.435C55.7281 72.3575 55.7415 72.2801 55.7519 72.2028C56.0881 69.7007 56.5485 67.2255 57.3895 64.8357C57.6647 64.0535 57.9917 63.2933 58.3836 62.5616C58.4851 62.3721 58.6098 62.2036 58.7567 62.0462C60.5365 60.1394 62.2519 58.1787 63.7778 56.0268Z"/>
</mask>
<path fill-rule="evenodd" clip-rule="evenodd" d="M41.1694 127.183C41.1695 127.479 41.1718 127.775 41.2046 128.071C41.4048 128.071 41.5733 128.071 41.7604 128.046C41.8474 127.91 41.8456 127.783 41.8439 127.659L41.8436 127.641C41.8365 127.075 41.8704 126.51 41.9043 125.946L41.9043 125.946C41.935 125.435 41.9656 124.924 41.9657 124.414C41.966 123.525 42.0067 122.639 42.0475 121.752L42.0475 121.752C42.0872 120.888 42.1269 120.025 42.1291 119.16C42.1298 118.889 42.1248 118.617 42.1198 118.345L42.1198 118.344C42.1091 117.762 42.0984 117.18 42.1435 116.602L42.1552 116.449C42.2231 115.562 42.292 114.66 42.7961 113.871C42.8855 113.731 42.934 113.569 42.9663 113.405C43.0267 113.099 43.2001 112.861 43.4224 112.66C44.1482 112.003 45.0048 111.851 45.9017 112.164C46.0217 112.205 46.1417 112.247 46.2617 112.289L46.2619 112.289C47.507 112.724 48.7515 113.158 50.0207 113.517C52.9695 114.351 55.9694 114.921 59.019 115.223C59.2868 115.25 59.4974 115.341 59.6475 115.564C59.6992 115.641 59.7515 115.718 59.8039 115.794C60.1716 116.332 60.5386 116.868 60.6835 117.528C60.7541 117.85 60.8531 118.17 61.0033 118.469C61.1929 118.847 61.2684 119.248 61.2686 119.672C61.2686 119.794 61.2671 119.916 61.2656 120.039C61.2599 120.496 61.2543 120.954 61.3292 121.41C61.4482 122.135 61.5046 122.858 61.4275 123.601C61.4187 123.686 61.4097 123.771 61.4008 123.856L61.4006 123.858C61.308 124.737 61.2149 125.621 61.2742 126.506C61.2812 126.61 61.285 126.714 61.2889 126.819C61.3046 127.244 61.3204 127.673 61.5441 128.071C62.1715 128.071 62.7656 128.071 63.3786 128.046C63.4551 127.921 63.4582 127.802 63.4611 127.686C63.4621 127.647 63.4631 127.608 63.4668 127.57C63.497 127.264 63.4466 126.965 63.396 126.666C63.3518 126.405 63.3075 126.144 63.3169 125.876C63.3437 125.107 63.3354 124.336 63.3192 123.567C63.3166 123.444 63.3164 123.321 63.3162 123.198C63.3156 122.822 63.315 122.445 63.2475 122.084C63.2089 121.878 63.1745 121.67 63.1402 121.462C63.0394 120.853 62.9385 120.242 62.7283 119.656C62.6964 119.567 62.6875 119.47 62.689 119.375C62.6934 119.093 62.6918 118.811 62.6902 118.529V118.529C62.6869 117.959 62.6836 117.39 62.73 116.819C62.769 116.34 62.9617 116.026 63.3818 115.807C63.3913 115.902 63.4041 115.996 63.4169 116.09L63.4169 116.09C63.4426 116.278 63.468 116.464 63.4661 116.654C63.456 117.652 63.5759 118.64 63.7208 119.623C64.1181 122.318 64.4584 125.018 64.6072 127.74C64.6138 127.86 64.6261 127.976 64.7419 128.071C64.9182 128.071 65.0634 128.071 65.2279 128.045C65.3237 127.889 65.3194 127.741 65.3152 127.598C65.3149 127.588 65.3147 127.579 65.3144 127.569C65.2936 126.765 65.2339 125.963 65.1504 125.164C64.9468 123.214 64.6887 121.272 64.4305 119.329C64.3801 118.95 64.3297 118.57 64.2797 118.191C64.1759 117.404 64.1559 116.61 64.1821 115.817C64.1823 115.81 64.1824 115.804 64.1824 115.797C64.1825 115.789 64.1824 115.782 64.1824 115.774L64.1822 115.757V115.757C64.1806 115.635 64.1788 115.497 64.3565 115.488C64.515 115.48 64.5463 115.602 64.5764 115.719C64.5783 115.727 64.5801 115.734 64.582 115.741C64.5836 115.747 64.5851 115.753 64.5867 115.759C64.5895 115.769 64.5925 115.779 64.5956 115.789C64.5977 115.796 64.5994 115.802 64.6009 115.809C64.6016 115.812 64.6022 115.815 64.6029 115.818C64.6038 115.823 64.6046 115.827 64.6055 115.832L64.6055 115.832C64.6072 115.841 64.6089 115.849 64.6111 115.858C65.1799 118.23 65.3312 120.651 65.447 123.073C65.4713 123.582 65.4704 124.092 65.4695 124.602V124.603C65.4681 125.323 65.4668 126.043 65.5366 126.761C65.5461 126.858 65.551 126.957 65.5558 127.055C65.573 127.404 65.5904 127.756 65.8108 128.071C66.3908 128.071 66.9375 128.071 67.5032 128.046C67.5616 127.959 67.5815 127.89 67.582 127.818C67.5828 127.683 67.5852 127.548 67.5875 127.412L67.5875 127.411C67.5954 126.956 67.6033 126.501 67.5546 126.046C67.5189 125.712 67.5154 125.377 67.5121 125.064C67.5117 125.028 67.5114 124.992 67.511 124.957C67.553 125.434 67.6277 125.93 67.704 126.437L67.704 126.437C67.7771 126.922 67.8518 127.418 67.9004 127.916C67.9062 127.976 67.9447 128.025 68.0139 128.071C68.2379 128.071 68.4299 128.071 68.6267 128.038C68.6292 127.904 68.6293 127.781 68.6294 127.662V127.662C68.6295 127.573 68.6296 127.487 68.6306 127.402C68.6361 126.961 68.6343 126.52 68.6324 126.079C68.6295 125.382 68.6266 124.686 68.6525 123.989C68.6614 123.751 68.693 123.515 68.7247 123.28C68.7624 122.999 68.8002 122.718 68.799 122.433C68.7958 121.605 68.8463 120.78 68.9736 119.959C69.0548 119.435 69.1128 118.907 69.1708 118.379C69.1891 118.212 69.2074 118.045 69.2265 117.878C69.294 117.287 69.4419 116.714 69.5898 116.14C69.6576 115.877 69.7255 115.615 69.7855 115.35L69.7858 115.349C69.853 115.053 69.8535 115.05 70.1734 115.011C70.8781 114.926 71.5807 114.827 72.2822 114.717C75.4832 114.214 78.6006 113.394 81.6501 112.302C82.0795 112.148 82.5035 111.981 82.9276 111.813C83.4375 111.612 83.9475 111.41 84.4671 111.232C84.9876 111.054 85.4934 111.053 86.0012 111.167C86.2823 111.23 86.5522 111.411 86.7078 111.666C86.8987 111.978 87.0348 112.325 87.0475 112.701L87.0488 112.74V112.74C87.0871 113.875 87.1253 115.011 86.9395 116.139C86.9272 116.213 86.9196 116.289 86.9121 116.366C86.8957 116.529 86.8794 116.693 86.8171 116.837C86.5174 117.529 86.4698 118.25 86.4537 118.989C86.444 119.431 86.6084 119.795 86.8039 120.161C86.9122 120.363 87.0856 120.464 87.3243 120.471C87.8021 120.485 88.4238 120.025 88.5406 119.554C88.6534 119.1 88.6658 118.646 88.5695 118.184C88.3348 117.057 88.1855 115.919 88.1453 114.767C88.0681 112.551 88.7888 110.604 90.1469 108.875C90.1663 108.851 90.1857 108.826 90.2051 108.802C90.3398 108.631 90.4739 108.462 90.5828 108.272C90.7326 108.011 90.9404 107.814 91.2042 107.657C91.9373 107.221 92.6435 106.743 93.3462 106.26C99.0382 102.347 103.815 97.5323 107.618 91.7601C107.676 91.6716 107.735 91.5835 107.795 91.4953L107.795 91.4946C108.007 91.1792 108.219 90.8633 108.393 90.5279C108.63 90.0696 108.658 89.4254 107.926 89.1407C107.336 88.9115 106.797 88.5784 106.258 88.2457L106.258 88.2454C106.111 88.1546 105.964 88.0638 105.816 87.9752C105.729 87.9233 105.675 87.8618 105.676 87.7503C105.68 87.4619 105.679 87.1734 105.678 86.8906V86.8892L105.678 86.8374C105.678 86.7486 105.678 86.6605 105.678 86.5731C105.774 86.5342 105.83 86.5672 105.881 86.5966C105.891 86.6025 105.901 86.6083 105.911 86.6133C106.005 86.6612 106.095 86.7173 106.186 86.7733L106.186 86.7734C106.206 86.786 106.226 86.7985 106.246 86.8109L106.299 86.8433C106.333 86.8646 106.368 86.8859 106.402 86.9072C106.444 86.9329 106.485 86.9586 106.527 86.9844L106.529 86.9857L106.529 86.9858C107.289 87.4569 108.049 87.9277 108.903 88.2256C109.386 88.3943 109.719 88.2834 109.964 87.8267C113.757 80.7602 115.793 73.2137 116.106 65.2057C116.25 61.513 116 57.8423 115.357 54.199C114.714 50.5615 113.705 47.0317 112.307 43.6135C106.389 29.1501 94.3375 18.1392 79.3922 13.5448C76.7857 12.7435 74.1297 12.1627 71.4277 11.7884C70.1715 11.6144 68.9112 11.4827 67.6466 11.4C67.5997 11.397 67.5528 11.3939 67.5059 11.3908C66.7373 11.3403 65.9674 11.2898 65.196 11.3065C64.7706 11.3157 64.6089 11.4914 64.5902 11.9209C64.5819 12.1102 64.6013 12.2973 64.6205 12.4842C64.6353 12.6269 64.65 12.7694 64.6524 12.9125C64.6575 13.2167 64.6582 13.5209 64.659 13.8252C64.6605 14.4447 64.662 15.0643 64.7003 15.6835C64.741 16.3415 64.6963 16.9971 64.6515 17.6527V17.6541C64.6132 18.2154 64.5749 18.7768 64.5902 19.3396C64.5966 19.5738 64.6121 19.8074 64.6277 20.0411C64.6521 20.409 64.6765 20.777 64.6654 21.1472C64.6491 21.6876 64.7896 21.8497 65.383 21.9613C65.4397 21.972 65.4983 21.9738 65.5566 21.9756H65.5567C65.5696 21.976 65.5826 21.9764 65.5955 21.9769C66.7679 22.0221 67.9366 22.1088 69.1027 22.2432C71.4132 22.5096 73.6829 22.9741 75.9117 23.6333C87.7756 27.1423 97.5116 35.8812 102.29 47.3019C104.273 52.0403 105.325 56.9784 105.457 62.1114C105.504 63.9134 105.444 65.7122 105.257 67.5072C105.08 69.2051 104.807 70.8857 104.424 72.5487C103.612 76.0738 102.351 79.4308 100.651 82.6234C100.4 83.0941 100.508 83.528 100.952 83.8258C101.105 83.9285 101.264 84.0223 101.422 84.1162L101.423 84.1168L101.424 84.1171C101.445 84.1296 101.466 84.1421 101.487 84.1547L101.516 84.1718C101.561 84.1982 101.605 84.2247 101.649 84.2515C101.662 84.2596 101.676 84.2671 101.69 84.2746C101.758 84.3119 101.826 84.3492 101.826 84.4489C101.826 84.7602 101.826 85.0714 101.826 85.398L101.826 85.7803C101.715 85.7123 101.607 85.6495 101.503 85.5888L101.503 85.5887C101.278 85.4576 101.069 85.3362 100.877 85.1931C100.543 84.9446 100.177 84.9278 99.7972 84.9683C99.4547 85.0048 99.1791 85.1546 98.9842 85.4635C98.206 86.6968 97.3574 87.8811 96.4391 89.014C90.8889 95.8616 83.8941 100.536 75.4165 102.976C73.1354 103.633 70.8087 104.055 68.45 104.306C68.22 104.33 67.9891 104.347 67.7626 104.363H67.7623L67.7614 104.363L67.7599 104.363C67.6567 104.371 67.5543 104.378 67.4534 104.386C67.4076 104.287 67.4105 104.206 67.4132 104.132L67.4132 104.131C67.4137 104.117 67.4142 104.104 67.4144 104.09C67.4145 104.083 67.4145 104.076 67.4143 104.07C67.3925 102.857 67.4134 101.644 67.4343 100.432C67.4499 99.5239 67.4656 98.6159 67.4633 97.7077C67.4628 97.535 67.5049 97.3765 67.5759 97.2285C67.7283 96.9109 67.7971 96.5825 67.7727 96.2308C67.7716 96.2148 67.7699 96.1984 67.7682 96.1818C67.7589 96.0921 67.749 95.9959 67.8267 95.9274C67.9748 95.7969 68.0557 95.6267 68.1366 95.4563C68.1569 95.4137 68.1771 95.371 68.1985 95.329C68.3162 95.0967 68.4905 94.9766 68.7657 94.9865C68.9922 94.9947 69.2191 94.9928 69.4461 94.9908C69.6222 94.9893 69.7983 94.9878 69.9743 94.9911C70.1543 94.9943 70.2973 94.9373 70.4128 94.8039C70.4966 94.707 70.4904 94.5933 70.4843 94.4812C70.4828 94.452 70.4812 94.4229 70.4812 94.3942C70.4831 91.2782 70.4836 88.1622 70.484 85.0461L70.4844 83.0271C70.4844 83.0111 70.4841 82.9951 70.4839 82.9791C70.4835 82.9606 70.4832 82.9421 70.4833 82.9237C70.4835 82.8988 70.4844 82.874 70.487 82.8495C70.5151 82.5893 70.5022 82.3294 70.4894 82.0694C70.4801 81.8821 70.4709 81.6947 70.4769 81.507C70.4837 81.2958 70.3044 81.1269 70.09 81.1325C69.7236 81.142 69.3585 81.1202 68.9937 81.0985H68.9928C68.7215 81.0823 68.4504 81.066 68.1791 81.0628C66.8999 81.0474 65.6202 81.0719 64.3419 81.1301C64.1274 81.1399 63.9166 81.1168 63.7059 81.0936C63.6235 81.0846 63.541 81.0755 63.4584 81.0684C63.3122 81.0559 63.1699 81.077 63.0275 81.098L63.0274 81.0981C62.9132 81.1149 62.799 81.1318 62.6827 81.1314C61.4353 81.1274 60.188 81.1278 58.9406 81.1282L58.3785 81.1283C58.1185 81.1284 57.8584 81.1284 57.5984 81.1284C57.5229 81.1284 57.4474 81.1273 57.3719 81.1261H57.3715C57.2219 81.1238 57.0723 81.1216 56.923 81.1282C56.5711 81.1437 56.3867 81.3124 56.3824 81.6549C56.3759 82.1742 56.3748 82.6935 56.3736 83.2128C56.3725 83.7474 56.3713 84.282 56.3643 84.8166C56.3599 85.152 56.3652 85.4875 56.3705 85.823V85.823C56.3805 86.4575 56.3905 87.0921 56.3349 87.7263C56.3184 87.9143 56.321 88.1056 56.3328 88.2942C56.3972 89.322 56.4297 90.3492 56.3153 91.3757C56.3047 91.4711 56.3012 91.5658 56.3298 91.6575C56.3796 91.8181 56.3791 91.983 56.3785 92.1477L56.3785 92.1507C56.3779 92.3262 56.3762 92.5018 56.3746 92.6774V92.678C56.3716 92.9999 56.3686 93.3218 56.372 93.6437C56.3722 93.6668 56.3723 93.6899 56.3724 93.7131L56.3725 93.7426L56.3725 93.7813C56.3728 94.0545 56.373 94.3287 56.4658 94.5929C56.5843 94.9302 56.6724 94.9897 57.0408 94.9897C59.6955 94.9891 62.3502 94.989 65.005 94.9889C65.242 94.9888 65.479 94.9889 65.7161 94.9906L65.7222 94.9906L65.7318 94.9906C65.8076 94.9908 65.8801 94.991 65.9373 95.0679C65.9787 95.1234 66.0222 95.1774 66.0656 95.2314C66.1779 95.3708 66.2902 95.5101 66.3657 95.676C66.7136 96.44 66.8552 97.2489 66.89 98.081C66.8921 98.1315 66.8906 98.1825 66.8892 98.2336C66.8855 98.3619 66.8819 98.4903 66.9344 98.6086C67.0042 98.7658 67.0027 98.9248 67.0011 99.0867L67.001 99.0958C66.9977 99.4539 66.9843 99.8117 66.9708 100.17V100.17C66.9519 100.676 66.9329 101.183 66.9424 101.69C66.9534 102.276 66.9505 102.863 66.9476 103.449V103.45C66.9465 103.669 66.9455 103.888 66.9451 104.107C66.9446 104.434 66.9425 104.434 66.6182 104.451L66.6162 104.451C64.5184 104.564 62.4241 104.527 60.3311 104.334C58.3703 104.153 56.4304 103.846 54.5201 103.375C46.459 101.387 39.6008 97.3425 33.9356 91.2769C32.1596 89.3754 30.5908 87.3124 29.2108 85.1062C29.1302 84.9775 29.0502 84.8575 28.91 84.7679C28.5097 84.5119 28.1413 84.5859 27.7946 84.8476C27.3016 85.2199 26.7802 85.5452 26.2411 85.8438C26.2306 85.8496 26.2201 85.856 26.2097 85.8626C26.2015 85.8678 26.1933 85.8732 26.1851 85.8786L26.185 85.8787C26.1155 85.9243 26.0424 85.9723 25.9297 85.9476C25.9297 85.8418 25.9298 85.7357 25.93 85.6295V85.6272C25.9304 85.3457 25.9308 85.0631 25.9284 84.7806C25.9274 84.673 25.9694 84.6035 26.0632 84.5534C26.3413 84.4046 26.5952 84.2196 26.8492 84.0345C27.0451 83.8917 27.2411 83.7489 27.4483 83.6227C27.8063 83.4047 27.93 83.0874 27.791 82.6984C27.7434 82.5648 27.6763 82.4379 27.6095 82.3113C27.5933 82.2805 27.577 82.2497 27.561 82.2188C24.7657 76.8148 23.2441 71.07 22.9868 64.9946C22.8702 62.242 23.0213 59.5008 23.4515 56.7754C23.9482 53.6286 24.793 50.5812 25.9986 47.6334C30.8358 35.8059 40.8751 26.8766 53.1943 23.4433C55.4114 22.8254 57.6653 22.406 59.9553 22.1735C60.4404 22.1243 60.9267 22.0925 61.4128 22.0608L61.4129 22.0608C61.8014 22.0354 62.1897 22.0101 62.5774 21.9758C63.1533 21.9248 63.5182 21.5985 63.4736 21.0566C63.4619 20.9146 63.4585 20.7721 63.455 20.6296C63.4488 20.3706 63.4425 20.1114 63.3868 19.8541C63.3608 19.7338 63.3684 19.6057 63.376 19.4784V19.4784L63.376 19.4782C63.3784 19.4381 63.3808 19.398 63.3821 19.3583C63.3931 19.0289 63.4095 18.6995 63.426 18.3701C63.4496 17.8955 63.4733 17.421 63.4806 16.9467C63.4977 15.8336 63.475 14.7199 63.4523 13.6064L63.4523 13.6058L63.4523 13.6053L63.4523 13.6043C63.4482 13.4037 63.4441 13.2031 63.4403 13.0025C63.4376 12.8619 63.4307 12.7213 63.4239 12.5806C63.4135 12.3664 63.4031 12.152 63.4073 11.9373C63.4089 11.8539 63.3983 11.7748 63.3634 11.6956C63.2267 11.386 63.0883 11.2985 62.6849 11.3109C60.4684 11.3794 58.2649 11.5818 56.0733 11.9262C53.0022 12.4088 49.9959 13.1499 47.0676 14.1907C37.029 17.7585 28.8051 23.8101 22.461 32.3627C16.4069 40.5243 13.0883 49.7168 12.3919 59.8517C12.2269 62.254 12.2504 64.6589 12.4257 67.0627C12.5861 69.2629 12.8785 71.4442 13.3175 73.6045C14.2872 78.3764 15.8987 82.9229 18.1478 87.243C18.3619 87.6542 18.6 88.0419 18.9828 88.3188C19.0403 88.3604 19.0465 88.4124 19.0472 88.4713C19.0482 88.557 19.0481 88.6428 19.0481 88.7285L19.048 93.039C19.048 102.313 19.048 111.587 19.0483 120.861L19.0482 120.915V120.915C19.048 121.027 19.0478 121.14 19.0553 121.252C19.0654 121.405 19.1601 121.5 19.3058 121.5C19.4512 121.5 19.5465 121.405 19.5567 121.253C19.5641 121.142 19.5639 121.03 19.5636 120.919L19.5636 120.886L19.5636 120.862C19.5638 110.895 19.5638 100.929 19.5638 90.9628L19.5638 88.8271C19.5638 88.8059 19.5642 88.7846 19.5648 88.7633C19.5651 88.7514 19.5654 88.7395 19.5657 88.7277L19.5657 88.7275C19.5679 88.6537 19.57 88.58 19.5617 88.5074C19.5429 88.3417 19.6161 88.2453 19.7548 88.1658C19.8537 88.1091 19.9494 88.0465 20.045 87.9839C20.1576 87.9102 20.2702 87.8364 20.3882 87.7724C20.572 87.6727 20.749 87.5612 20.9259 87.4497L20.9268 87.4492C21.2099 87.2708 21.493 87.0924 21.8041 86.962L21.8418 86.9463C22.3091 86.7505 22.7776 86.5542 23.1685 86.2175C23.1998 86.1906 23.2283 86.2017 23.2747 86.2198C23.2778 86.221 23.2809 86.2222 23.2841 86.2234C23.2841 86.3377 23.2837 86.4526 23.2833 86.5679V86.5696C23.2824 86.8635 23.2814 87.1604 23.2867 87.4572C23.2893 87.6053 23.2112 87.6583 23.0913 87.7094C22.4377 87.988 21.8004 88.3 21.2055 88.6911C21.0758 88.7763 20.9428 88.8563 20.8097 88.9364L20.8086 88.9371L20.8084 88.9373L20.8083 88.9373L20.8082 88.9374C20.5167 89.1128 20.2252 89.2882 19.9693 89.5173C19.7448 89.7183 19.6948 89.9557 19.8386 90.2128C19.9307 90.3776 20.0274 90.5401 20.1274 90.7002C22.1116 93.8762 24.4075 96.8109 26.9949 99.5156C30.024 102.682 33.4061 105.416 37.1368 107.716C37.4853 107.931 37.7914 108.196 38.0369 108.509C38.3009 108.847 38.6084 109.136 38.9163 109.425C38.9783 109.484 39.0403 109.542 39.102 109.601C39.4615 109.943 39.8024 110.287 39.998 110.765C40.0783 110.96 40.1719 111.151 40.2656 111.341C40.4585 111.733 40.6514 112.126 40.728 112.567C40.758 112.74 40.8109 112.907 40.8637 113.075C40.9426 113.325 41.0215 113.575 41.0245 113.842C41.0296 114.283 41.0786 114.719 41.1275 115.156L41.1275 115.156C41.1748 115.578 41.2221 116 41.2299 116.425C41.234 116.645 41.2493 116.864 41.2647 117.083V117.084C41.2998 117.585 41.3348 118.085 41.2353 118.585C41.1768 118.879 41.169 119.172 41.1691 119.468C41.1695 121.035 41.1694 122.603 41.1694 124.171C41.1694 125.175 41.1694 126.179 41.1694 127.183ZM103.299 85.1256C103.251 85.0947 103.193 85.0717 103.125 85.1274C103.121 85.3081 103.121 85.4828 103.12 85.6542C103.119 85.8448 103.118 86.0314 103.113 86.218C103.109 86.3624 103.138 86.4701 103.281 86.5313C103.626 86.6792 103.939 86.8825 104.251 87.0858C104.384 87.1719 104.516 87.2581 104.651 87.3401C104.663 87.3468 104.674 87.3536 104.685 87.3604C104.821 87.4437 104.961 87.5298 105.154 87.5335C105.154 87.4284 105.153 87.3248 105.152 87.2221L105.152 87.219V87.2164C105.15 86.9721 105.148 86.7337 105.158 86.4957C105.165 86.31 105.105 86.1977 104.95 86.0883C104.661 85.8855 104.352 85.7187 104.043 85.552C103.791 85.4163 103.54 85.2806 103.299 85.1256ZM102.588 86.0617C102.421 86.1356 102.357 86.0581 102.356 85.9112C102.355 85.6431 102.355 85.375 102.356 85.1029V85.0991C102.356 84.9893 102.356 84.8788 102.356 84.7675C102.577 84.7557 102.602 84.8826 102.601 85.0378C102.6 85.1127 102.6 85.1875 102.599 85.2627L102.599 85.2708C102.598 85.5259 102.596 85.785 102.588 86.0617ZM24.2509 85.9977C24.2509 86.1397 24.251 86.2817 24.251 86.457C24.2551 86.5115 24.2534 86.5633 24.2518 86.6133C24.2485 86.7152 24.2454 86.8101 24.2915 86.9074C24.3561 86.8688 24.4198 86.8306 24.4828 86.7928L24.5592 86.7469C24.7961 86.6047 25.0244 86.4678 25.2537 86.3326C25.3282 86.2886 25.3897 86.2461 25.389 86.1459C25.3871 85.8666 25.3874 85.5873 25.3877 85.2958C25.3878 85.1848 25.388 85.0719 25.388 84.9567C25.1092 85.04 24.8901 85.1527 24.6742 85.2688C24.2509 85.4964 24.2509 85.5005 24.2509 85.9917V85.9977ZM68.1176 122.667L68.1176 124.185C67.959 123.86 67.9045 123.513 67.8571 123.168C67.7804 122.61 67.637 122.069 67.4935 121.526L67.4793 121.473C67.4728 121.448 67.4646 121.423 67.4565 121.399C67.4384 121.344 67.4203 121.289 67.4198 121.234C67.4177 120.99 67.398 120.747 67.3784 120.503C67.3493 120.145 67.3203 119.786 67.3478 119.425C67.3783 119.026 67.2878 118.649 67.154 118.28C67.0964 118.121 67.0661 117.962 67.0733 117.793C67.0808 117.617 67.0779 117.44 67.075 117.263V117.263C67.0698 116.943 67.0646 116.624 67.1209 116.305C67.1431 116.179 67.1726 116.076 67.2781 116.005C67.5037 115.853 67.7028 115.674 67.8954 115.365L67.8954 115.826C67.8954 116.152 67.8954 116.478 67.8954 116.805C67.8954 117.818 67.8955 118.831 67.8945 119.843L67.8945 119.853L67.8943 119.896C67.8937 120.069 67.893 120.242 67.9389 120.409C68.1243 121.082 68.1213 121.769 68.1183 122.485V122.485C68.118 122.545 68.1177 122.606 68.1176 122.667ZM66.7447 115.679C66.724 115.624 66.6782 115.631 66.6364 115.696C66.6351 115.749 66.6369 115.794 66.6795 115.785C66.7277 115.774 66.7621 115.725 66.7447 115.679ZM65.8423 115.646C65.9131 115.691 65.9373 115.738 65.8861 115.791C65.8618 115.816 65.8277 115.827 65.8026 115.792C65.7647 115.74 65.7738 115.688 65.8423 115.646ZM66.9337 126.529C66.9434 126.55 66.96 126.567 66.9855 126.594C66.986 126.585 66.9865 126.576 66.9869 126.567L66.9878 126.553L66.9878 126.553L66.9878 126.552C66.9906 126.504 66.9927 126.467 66.9878 126.431C66.9863 126.42 66.9868 126.407 66.9874 126.395C66.989 126.357 66.9907 126.318 66.9381 126.298C66.9213 126.441 66.9155 126.491 66.9337 126.529ZM66.7713 125.546C66.7604 125.565 66.761 125.589 66.7615 125.61C66.7623 125.644 66.7629 125.669 66.7141 125.648C66.6876 125.637 66.6759 125.565 66.6761 125.522C66.6782 125.05 66.5945 124.59 66.5107 124.13C66.491 124.021 66.4713 123.913 66.4527 123.804L66.4508 123.793L66.449 123.783C66.4401 123.732 66.4311 123.681 66.431 123.629C66.43 122.568 66.43 121.507 66.4301 120.403L66.4301 119.765C66.6915 120.342 66.8185 120.883 66.8248 121.445C66.837 122.544 66.8316 123.643 66.8258 124.742C66.8248 124.923 66.809 125.104 66.7923 125.294L66.7916 125.301C66.7896 125.324 66.7877 125.346 66.7857 125.369C66.7807 125.427 66.7757 125.486 66.7713 125.546ZM66.5763 127.602C66.5657 127.558 66.5394 127.516 66.4957 127.448L66.4957 127.448C66.4773 127.613 66.4757 127.755 66.5185 127.944C66.5714 127.748 66.5924 127.671 66.5763 127.602ZM65.2757 115.518C65.2739 115.552 65.2783 115.584 65.2825 115.615C65.2922 115.685 65.301 115.75 65.2348 115.817C65.229 115.796 65.2232 115.776 65.2174 115.756C65.2135 115.742 65.2096 115.729 65.2057 115.715C65.1821 115.634 65.1601 115.557 65.1432 115.48C65.1354 115.444 65.1287 115.38 65.1972 115.388C65.2478 115.394 65.2622 115.446 65.2757 115.518Z" stroke="black" stroke-width="2" mask="url(#path-1-inside-1_138_93)"/>
<path d="M58.4678 52.9236C58.2241 52.9914 58.0076 53.0513 57.7908 53.1098C57.6041 53.1602 57.4223 53.1808 57.2506 53.0547C57.1542 52.9838 57.0377 52.9841 56.9216 52.9844L56.9099 52.9844C55.8078 52.9861 54.7057 52.9869 53.6037 52.9845C53.4252 52.9841 53.2556 53.0261 53.0866 53.0681C52.9931 53.0912 52.8999 53.1144 52.8054 53.1303C52.6702 53.153 52.5413 53.1072 52.409 53.0602C52.2845 53.016 52.1571 52.9707 52.0186 52.9804C51.6291 53.0074 51.2387 53.0222 50.8483 53.037H50.8482C50.5873 53.0469 50.3265 53.0568 50.0659 53.0703C49.8592 53.0811 49.6526 53.097 49.4461 53.1129L49.4458 53.113C49.1443 53.1362 48.8428 53.1595 48.5409 53.1666C47.6483 53.1876 46.766 53.1076 45.9212 52.7875C44.782 52.3558 44.1885 51.5238 44.1036 50.3146C44.0915 50.1415 44.1341 49.9825 44.177 49.822C44.1797 49.8121 44.1823 49.8022 44.185 49.7923C44.3622 49.1271 44.4958 48.4553 44.5153 47.7646C44.5158 47.7484 44.5164 47.732 44.517 47.7156L44.5171 47.7147C44.5223 47.5744 44.5278 47.4284 44.4427 47.3162C44.2702 47.089 44.3628 46.9092 44.4711 46.6986L44.4816 46.6781C44.8518 45.9565 45.038 45.171 45.2186 44.3869C45.4258 43.4872 45.5867 42.578 45.7224 41.6648C45.744 41.5192 45.7914 41.3937 45.8729 41.2731C46.1407 40.8771 46.4061 40.4794 46.6716 40.0818C47.2347 39.2383 47.7978 38.3948 48.3832 37.5671C49.0301 36.6524 49.8528 35.8926 50.7419 35.2154C53.3971 33.193 56.3638 31.8692 59.6593 31.3063C60.5594 31.1525 61.4699 31.0941 62.3839 31.0857C62.6935 31.0828 62.9618 31.1922 63.2303 31.3179C63.3699 31.3832 63.4043 31.5144 63.438 31.643L63.4381 31.6434C63.443 31.6622 63.4479 31.6809 63.4531 31.6993C63.6876 32.5282 63.6944 33.3808 63.7011 34.2302L63.705 34.6919C63.718 36.2297 63.7311 37.768 63.6976 39.305C63.6649 40.8094 63.655 42.3133 63.647 43.8177C63.6439 44.3872 63.3737 44.5182 63.0199 44.5701C62.2035 44.6897 61.6079 45.144 61.1591 45.8127C60.7095 46.4826 60.4742 47.2377 60.3042 48.0164C60.053 49.1681 59.9781 50.3392 59.9812 51.5124C59.9826 52.0225 59.7647 52.3367 59.346 52.5648C59.0745 52.7128 58.7907 52.8279 58.4678 52.9236Z" stroke="black" stroke-width="2" mask="url(#path-1-inside-1_138_93)"/>
<path d="M63.7778 56.0268C64.5204 54.9665 65.1909 53.8937 65.7005 52.7274L65.703 52.7218C65.7357 52.6469 65.7675 52.5742 65.8312 52.5197C66.4859 51.9599 66.7913 51.2058 66.9625 50.3959C67.1891 49.3246 67.2707 48.2393 67.13 47.1465C67.0675 46.6603 66.9256 46.1985 66.6646 45.7792C66.3518 45.2767 65.9089 44.9272 65.3506 44.7477C64.9947 44.6333 64.8522 44.3825 64.8556 44.0568C64.8599 43.643 64.8545 43.229 64.8492 42.815C64.8378 41.9378 64.8265 41.0606 64.9069 40.1847C64.9174 40.0705 64.9168 39.9552 64.9162 39.8401C64.9161 39.8128 64.9159 39.7856 64.9159 39.7584C64.9161 39.2668 64.9145 38.7752 64.9129 38.2836C64.9091 37.1516 64.9054 36.0197 64.9235 34.8881C64.931 34.4202 64.9038 33.9542 64.8767 33.4884C64.8495 33.0206 64.8222 32.553 64.8301 32.0838C64.84 31.4952 65.1519 31.1933 65.7549 31.1682C67.0068 31.1161 68.237 31.2995 69.4609 31.5142C71.8452 31.9326 74.1095 32.7029 76.2193 33.9048C76.9407 34.3157 77.6317 34.7717 78.298 35.2663C78.4709 35.3947 78.6192 35.5425 78.7521 35.7119C79.2348 36.3275 79.7191 36.9417 80.2035 37.556C80.57 38.0208 80.9366 38.4857 81.3024 38.9511C82.5998 40.6018 83.4156 42.4732 83.837 44.522C84.0163 45.394 84.1035 46.2773 84.1196 47.1676L84.1198 47.1793C84.1224 47.3187 84.1249 47.4573 84.0348 47.5756C83.9046 47.7463 83.8936 47.941 83.892 48.147C83.8901 48.4016 83.8912 48.6562 83.8924 48.9108C83.895 49.4853 83.8976 50.0599 83.8647 50.6347C83.7528 52.5937 83.1929 54.4232 82.3043 56.1616C81.7636 57.2194 81.1151 58.2081 80.3896 59.1473C80.2952 59.2695 80.216 59.3928 80.1704 59.5461C80.0889 59.82 79.9212 60.0512 79.7552 60.2801L79.7312 60.3131C79.2439 60.986 78.6919 61.6052 78.1318 62.2172C77.8077 62.5714 77.478 62.9206 77.1484 63.2698L77.1482 63.27C76.4938 63.9632 75.8394 64.6565 75.2276 65.3891C73.9945 66.8658 72.867 68.4133 72.0021 70.1395C71.4265 71.2884 70.9868 72.4834 70.7934 73.7597C70.7348 74.1461 70.697 74.5347 70.6879 74.9265C70.6773 75.3798 70.5759 75.8169 70.4144 76.2404C70.2454 76.6834 69.9638 76.9148 69.4515 76.9111C68.4213 76.9037 67.3906 76.9428 66.3654 77.0686C66.2025 77.0885 66.0336 77.0793 65.8692 77.065C64.3264 76.9306 62.7798 76.9172 61.2332 76.9039H61.2329C61.1091 76.9028 60.9853 76.9018 60.8615 76.9006C60.6122 76.8984 60.3629 76.9245 60.1298 77.0214C60.0252 77.0649 59.9385 77.0697 59.8278 77.0269C59.4559 76.8829 59.0688 76.8912 58.6819 76.8995C58.5714 76.9018 58.4609 76.9042 58.3507 76.903C58.3054 76.9025 58.2368 76.91 58.2179 76.9391C58.0866 77.1411 57.9197 77.0908 57.7558 77.0415C57.7408 77.037 57.7258 77.0325 57.711 77.0282C57.7008 77.0253 57.6907 77.0224 57.6807 77.0198C57.2464 76.9043 56.9355 76.6196 56.6802 76.2658C56.3857 75.8578 56.2061 75.3948 56.0496 74.9215C55.9068 74.4898 55.8309 74.0437 55.755 73.5978C55.7299 73.45 55.7047 73.3022 55.6772 73.155C55.632 72.9135 55.6734 72.6738 55.7147 72.4351L55.7147 72.435C55.7281 72.3575 55.7415 72.2801 55.7519 72.2028C56.0881 69.7007 56.5485 67.2255 57.3895 64.8357C57.6647 64.0535 57.9917 63.2933 58.3836 62.5616C58.4851 62.3721 58.6098 62.2036 58.7567 62.0462C60.5365 60.1394 62.2519 58.1787 63.7778 56.0268Z" stroke="black" stroke-width="2" mask="url(#path-1-inside-1_138_93)"/>
</g>
<defs>
<clipPath id="clip0_138_93">
<rect width="128" height="128" fill="white"/>
</clipPath>
</defs>
</svg>
