<svg width="30" height="30" viewBox="0 0 30 30" fill="none" xmlns="http://www.w3.org/2000/svg">
<g clip-path="url(#clip0_138_91)">
<circle cx="15" cy="15" r="12" fill="white"/>
<path fill-rule="evenodd" clip-rule="evenodd" d="M9.64883 29.8087C9.64883 29.8781 9.64937 29.9475 9.65707 30.0169C9.70398 30.0169 9.74349 30.0169 9.78734 30.0111C9.80773 29.9791 9.80731 29.9493 9.8069 29.9202L9.80685 29.9162C9.80517 29.7835 9.81312 29.6511 9.82106 29.5188L9.82106 29.5188C9.82825 29.399 9.83543 29.2794 9.83546 29.1598C9.83552 28.9515 9.84507 28.7436 9.85462 28.5358L9.85462 28.5358C9.86393 28.3334 9.87323 28.1311 9.87375 27.9284C9.87391 27.8648 9.87274 27.801 9.87157 27.7372L9.87156 27.7371C9.86905 27.6006 9.86654 27.4642 9.87712 27.3287L9.87988 27.2929C9.89577 27.085 9.91192 26.8738 10.0301 26.6887C10.051 26.6559 10.0624 26.6178 10.07 26.5795C10.0841 26.5079 10.1248 26.452 10.1769 26.4048C10.347 26.2509 10.5477 26.2154 10.758 26.2886C10.7861 26.2984 10.8142 26.3082 10.8423 26.318L10.8424 26.318C11.1342 26.4198 11.4259 26.5216 11.7234 26.6057C12.4145 26.8013 13.1176 26.9348 13.8323 27.0056C13.8951 27.0119 13.9444 27.0333 13.9796 27.0856C13.9917 27.1036 14.004 27.1216 14.0163 27.1395C14.1025 27.2655 14.1885 27.3912 14.2224 27.5459C14.239 27.6213 14.2622 27.6962 14.2974 27.7663C14.3418 27.8549 14.3595 27.949 14.3596 28.0483C14.3596 28.0769 14.3592 28.1056 14.3589 28.1343C14.3575 28.2415 14.3562 28.3488 14.3738 28.4557C14.4017 28.6257 14.4149 28.7949 14.3968 28.9692C14.3947 28.9891 14.3926 29.0091 14.3905 29.029L14.3905 29.0295C14.3688 29.2355 14.347 29.4427 14.3609 29.6501C14.3625 29.6744 14.3634 29.6988 14.3643 29.7234C14.368 29.823 14.3717 29.9236 14.4241 30.0169C14.5712 30.0169 14.7104 30.0169 14.8541 30.0109C14.872 29.9818 14.8727 29.9537 14.8734 29.9266C14.8737 29.9174 14.8739 29.9084 14.8748 29.8994C14.8819 29.8276 14.87 29.7577 14.8582 29.6876C14.8478 29.6264 14.8374 29.5652 14.8396 29.5024C14.8459 29.3222 14.844 29.1415 14.8402 28.9611C14.8396 28.9324 14.8395 28.9036 14.8395 28.8747C14.8393 28.7867 14.8392 28.6984 14.8234 28.6138C14.8143 28.5653 14.8063 28.5166 14.7982 28.4679C14.7746 28.325 14.751 28.1819 14.7017 28.0446C14.6942 28.0238 14.6921 28.001 14.6925 27.9788C14.6935 27.9127 14.6931 27.8466 14.6927 27.7804V27.7804C14.692 27.6469 14.6912 27.5135 14.7021 27.3797C14.7112 27.2674 14.7564 27.1938 14.8548 27.1424C14.8571 27.1647 14.8601 27.1867 14.8631 27.2087L14.8631 27.2088C14.8691 27.2528 14.8751 27.2966 14.8746 27.341C14.8722 27.5749 14.9003 27.8066 14.9343 28.037C15.0274 28.6685 15.1072 29.3014 15.1421 29.9392C15.1436 29.9673 15.1465 29.9946 15.1736 30.0169C15.2149 30.0169 15.249 30.0169 15.2875 30.0108C15.31 29.9742 15.309 29.9396 15.308 29.906C15.3079 29.9037 15.3079 29.9015 15.3078 29.8993C15.3029 29.7108 15.2889 29.5228 15.2694 29.3354C15.2216 28.8786 15.1611 28.4233 15.1006 27.968C15.0888 27.879 15.077 27.7901 15.0653 27.7011C15.041 27.5167 15.0363 27.3308 15.0424 27.1449C15.0425 27.1433 15.0425 27.1417 15.0425 27.14C15.0425 27.1383 15.0425 27.1365 15.0425 27.1347L15.0424 27.1308V27.1308C15.0421 27.1022 15.0417 27.0699 15.0833 27.0678C15.1204 27.0659 15.1278 27.0945 15.1348 27.1219C15.1353 27.1237 15.1357 27.1254 15.1362 27.1271C15.1365 27.1285 15.1369 27.1298 15.1372 27.1312C15.1379 27.1336 15.1386 27.136 15.1393 27.1383C15.1398 27.1398 15.1402 27.1414 15.1406 27.1429C15.1407 27.1436 15.1409 27.1444 15.141 27.1451C15.1413 27.1461 15.1415 27.1472 15.1417 27.1482L15.1417 27.1483C15.1421 27.1503 15.1425 27.1524 15.143 27.1545C15.2763 27.7103 15.3117 28.2779 15.3389 28.8455C15.3446 28.9648 15.3444 29.0844 15.3441 29.2039V29.204C15.3438 29.3728 15.3435 29.5416 15.3599 29.7099C15.3621 29.7326 15.3632 29.7557 15.3644 29.7788C15.3684 29.8605 15.3725 29.9429 15.4241 30.0169C15.5601 30.0169 15.6882 30.0169 15.8208 30.0109C15.8345 29.9905 15.8392 29.9743 15.8393 29.9576C15.8395 29.9259 15.84 29.8942 15.8406 29.8624L15.8406 29.8622C15.8424 29.7555 15.8443 29.6488 15.8329 29.5422C15.8245 29.464 15.8237 29.3854 15.8229 29.3121C15.8228 29.3036 15.8227 29.2952 15.8226 29.2869C15.8325 29.3989 15.85 29.5151 15.8679 29.6338L15.8679 29.6338C15.885 29.7477 15.9025 29.8637 15.9139 29.9805C15.9153 29.9945 15.9243 30.006 15.9405 30.0169C15.993 30.0169 16.038 30.0169 16.0841 30.0091C16.0847 29.9777 16.0847 29.9488 16.0848 29.921V29.9209C16.0848 29.9002 16.0848 29.8801 16.085 29.86C16.0863 29.7566 16.0859 29.6533 16.0855 29.5499C16.0848 29.3867 16.0841 29.2234 16.0902 29.0601C16.0922 29.0043 16.0997 28.9491 16.1071 28.894C16.1159 28.8281 16.1248 28.7623 16.1245 28.6955C16.1238 28.5013 16.1356 28.3081 16.1654 28.1156C16.1845 27.9927 16.1981 27.8689 16.2116 27.7452C16.2159 27.7061 16.2202 27.667 16.2247 27.6279C16.2405 27.4894 16.2752 27.355 16.3099 27.2206C16.3257 27.159 16.3416 27.0974 16.3557 27.0353L16.3558 27.0351C16.3715 26.9657 16.3717 26.9651 16.4466 26.956C16.6118 26.9359 16.7765 26.9127 16.9409 26.8869C17.6911 26.7692 18.4218 26.5769 19.1365 26.321C19.2371 26.2849 19.3365 26.2457 19.4359 26.2064C19.5554 26.1592 19.6749 26.1119 19.7967 26.0703C19.9187 26.0286 20.0373 26.0284 20.1563 26.0549C20.2222 26.0696 20.2854 26.1122 20.3219 26.1718C20.3666 26.245 20.3985 26.3264 20.4015 26.4145L20.4018 26.4236V26.4236C20.4108 26.6897 20.4197 26.9559 20.3762 27.2203C20.3733 27.2377 20.3715 27.2555 20.3698 27.2734C20.3659 27.3118 20.3621 27.3501 20.3475 27.3838C20.2773 27.546 20.2661 27.7151 20.2623 27.8883C20.2601 27.9918 20.2986 28.0773 20.3444 28.1629C20.3698 28.2104 20.4104 28.234 20.4664 28.2356C20.5784 28.2388 20.7241 28.131 20.7514 28.0208C20.7779 27.9143 20.7808 27.8079 20.7582 27.6995C20.7032 27.4355 20.6682 27.1687 20.6588 26.8988C20.6407 26.3793 20.8096 25.923 21.1279 25.5179C21.1325 25.5121 21.137 25.5064 21.1416 25.5006C21.1731 25.4607 21.2046 25.421 21.2301 25.3765C21.2652 25.3154 21.3139 25.2691 21.3757 25.2323C21.5475 25.1302 21.7131 25.0181 21.8778 24.9048C23.2118 23.9877 24.3314 22.8594 25.2227 21.5065C25.2364 21.4857 25.2502 21.4651 25.2641 21.4444L25.2642 21.4443C25.3139 21.3703 25.3636 21.2963 25.4043 21.2177C25.4599 21.1103 25.4666 20.9593 25.2949 20.8926C25.1567 20.8389 25.0303 20.7608 24.904 20.6828L24.9039 20.6827C24.8694 20.6614 24.835 20.6402 24.8003 20.6194C24.78 20.6072 24.7673 20.5928 24.7676 20.5667C24.7684 20.4991 24.7683 20.4315 24.7681 20.3652V20.3649L24.7681 20.3527C24.7681 20.3319 24.768 20.3113 24.768 20.2908C24.7905 20.2817 24.8037 20.2894 24.8155 20.2963C24.8179 20.2977 24.8202 20.299 24.8225 20.3002C24.8447 20.3114 24.8659 20.3246 24.887 20.3377L24.887 20.3377C24.8918 20.3407 24.8965 20.3436 24.9013 20.3465L24.9136 20.3541C24.9216 20.3591 24.9297 20.3641 24.9378 20.3691C24.9475 20.3751 24.9573 20.3811 24.967 20.3872L24.9675 20.3875L24.9675 20.3875C25.1457 20.4979 25.3237 20.6083 25.5238 20.6781C25.637 20.7176 25.7152 20.6916 25.7726 20.5846C26.6614 18.9284 27.1388 17.1597 27.212 15.2828C27.2458 14.4173 27.1873 13.557 27.0365 12.7031C26.8859 11.8506 26.6494 11.0233 26.3216 10.2221C24.9347 6.83229 22.1101 4.25159 18.6073 3.17478C17.9964 2.98698 17.3739 2.85085 16.7406 2.76313C16.4462 2.72234 16.1508 2.69147 15.8544 2.6721C15.8434 2.67139 15.8324 2.67066 15.8214 2.66994C15.6413 2.65811 15.4609 2.64627 15.28 2.65017C15.1803 2.65233 15.1425 2.69352 15.1381 2.79418C15.1361 2.83855 15.1407 2.88241 15.1452 2.9262C15.1486 2.95964 15.1521 2.99304 15.1526 3.02659C15.1538 3.09789 15.154 3.16919 15.1542 3.2405C15.1545 3.38571 15.1549 3.53092 15.1639 3.67605C15.1734 3.83025 15.1629 3.98391 15.1524 4.13757V4.13789C15.1435 4.26946 15.1345 4.40102 15.1381 4.53294C15.1396 4.58782 15.1432 4.64259 15.1468 4.69737C15.1526 4.78358 15.1583 4.86983 15.1557 4.95659C15.1519 5.08325 15.1848 5.12125 15.3239 5.1474C15.3372 5.1499 15.3509 5.15032 15.3646 5.15075H15.3646C15.3676 5.15084 15.3707 5.15093 15.3737 5.15105C15.6485 5.16165 15.9224 5.18198 16.1957 5.21348C16.7372 5.27591 17.2692 5.38476 17.7915 5.53927C20.5722 6.36169 22.854 8.40988 23.9741 11.0866C24.4388 12.1972 24.6852 13.3545 24.7163 14.5576C24.7272 14.9799 24.7132 15.4015 24.6694 15.8222C24.6279 16.2202 24.5638 16.6141 24.4741 17.0038C24.2839 17.83 23.9883 18.6168 23.5898 19.3651C23.5311 19.4754 23.5563 19.5771 23.6603 19.6469C23.6962 19.671 23.7334 19.693 23.7706 19.715L23.7708 19.7151L23.7709 19.7152C23.7759 19.7181 23.7809 19.721 23.7858 19.724L23.7926 19.728C23.803 19.7342 23.8134 19.7404 23.8237 19.7467C23.8268 19.7486 23.8301 19.7503 23.8333 19.7521C23.8493 19.7608 23.8653 19.7696 23.8653 19.7929C23.8652 19.8659 23.8652 19.9388 23.8652 20.0154L23.8652 20.105C23.8391 20.089 23.8139 20.0743 23.7894 20.0601L23.7894 20.0601C23.7367 20.0294 23.6879 20.0009 23.6428 19.9673C23.5646 19.9091 23.4787 19.9052 23.3897 19.9147C23.3094 19.9232 23.2448 19.9583 23.1992 20.0307C23.0168 20.3198 22.8179 20.5973 22.6027 20.8629C21.3018 22.4678 19.6624 23.5634 17.6755 24.1353C17.1408 24.2892 16.5955 24.3881 16.0427 24.4469C15.9888 24.4526 15.9347 24.4565 15.8816 24.4604H15.8815L15.8813 24.4604L15.881 24.4604C15.8568 24.4622 15.8328 24.4639 15.8091 24.4658C15.7984 24.4424 15.7991 24.4236 15.7997 24.4061L15.7997 24.406C15.7998 24.4027 15.7999 24.3995 15.8 24.3963C15.8 24.3947 15.8 24.3931 15.8 24.3915C15.7948 24.1073 15.7997 23.8231 15.8047 23.539C15.8083 23.3261 15.812 23.1133 15.8114 22.9005C15.8113 22.86 15.8212 22.8228 15.8378 22.7881C15.8736 22.7137 15.8897 22.6367 15.884 22.5543C15.8837 22.5506 15.8833 22.5467 15.8829 22.5428C15.8807 22.5218 15.8784 22.4993 15.8966 22.4832C15.9313 22.4526 15.9503 22.4127 15.9693 22.3728C15.974 22.3628 15.9788 22.3528 15.9838 22.3429C16.0114 22.2885 16.0522 22.2604 16.1167 22.2627C16.1698 22.2646 16.223 22.2641 16.2762 22.2637C16.3174 22.2633 16.3587 22.263 16.4 22.2638C16.4422 22.2645 16.4757 22.2512 16.5027 22.2199C16.5224 22.1972 16.5209 22.1705 16.5195 22.1442C16.5191 22.1374 16.5188 22.1306 16.5188 22.1239C16.5192 21.3936 16.5193 20.6632 16.5194 19.9329L16.5195 19.4597C16.5195 19.456 16.5195 19.4522 16.5194 19.4484C16.5193 19.4441 16.5192 19.4398 16.5193 19.4355C16.5193 19.4296 16.5195 19.4238 16.5201 19.4181C16.5267 19.3571 16.5237 19.2962 16.5207 19.2352C16.5185 19.1913 16.5163 19.1474 16.5178 19.1034C16.5194 19.0539 16.4773 19.0143 16.4271 19.0157C16.3412 19.0179 16.2556 19.0128 16.1701 19.0077H16.1699C16.1063 19.0039 16.0428 19.0001 15.9792 18.9993C15.6794 18.9957 15.3795 19.0014 15.0799 19.0151C15.0296 19.0174 14.9802 19.012 14.9308 19.0065C14.9115 19.0044 14.8922 19.0023 14.8728 19.0006C14.8385 18.9977 14.8052 19.0026 14.7718 19.0076L14.7718 19.0076C14.745 19.0115 14.7183 19.0155 14.691 19.0154C14.3986 19.0145 14.1063 19.0145 13.8139 19.0146L13.6822 19.0147C13.6213 19.0147 13.5603 19.0147 13.4994 19.0147C13.4817 19.0147 13.464 19.0144 13.4463 19.0142H13.4462C13.4111 19.0136 13.3761 19.0131 13.3411 19.0146C13.2586 19.0183 13.2154 19.0578 13.2144 19.1381C13.2129 19.2598 13.2126 19.3815 13.2123 19.5032C13.212 19.6285 13.2118 19.7538 13.2101 19.8791C13.2091 19.9577 13.2103 20.0363 13.2116 20.115V20.115C13.2139 20.2637 13.2163 20.4124 13.2032 20.5611C13.1994 20.6051 13.2 20.65 13.2027 20.6942C13.2178 20.9351 13.2255 21.1758 13.1986 21.4164C13.1962 21.4388 13.1953 21.4609 13.202 21.4825C13.2137 21.5201 13.2136 21.5587 13.2135 21.5973L13.2134 21.598C13.2133 21.6392 13.2129 21.6803 13.2125 21.7215V21.7216C13.2118 21.7971 13.2111 21.8725 13.2119 21.948C13.212 21.9534 13.212 21.9588 13.212 21.9642L13.212 21.9711L13.2121 21.9802C13.2121 22.0442 13.2122 22.1085 13.2339 22.1704C13.2617 22.2495 13.2823 22.2634 13.3687 22.2634C13.9909 22.2633 14.6131 22.2633 15.2353 22.2632C15.2908 22.2632 15.3464 22.2632 15.4019 22.2636L15.4034 22.2636L15.4056 22.2636C15.4234 22.2637 15.4404 22.2637 15.4538 22.2818C15.4635 22.2948 15.4737 22.3074 15.4839 22.3201C15.5102 22.3527 15.5365 22.3854 15.5542 22.4243C15.6357 22.6033 15.6689 22.7929 15.6771 22.988C15.6776 22.9998 15.6772 23.0118 15.6769 23.0237C15.676 23.0538 15.6752 23.0839 15.6875 23.1116C15.7038 23.1485 15.7035 23.1857 15.7031 23.2237L15.7031 23.2258C15.7023 23.3097 15.6992 23.3936 15.696 23.4774V23.4777C15.6916 23.5963 15.6871 23.7149 15.6894 23.8337C15.6919 23.9711 15.6913 24.1086 15.6906 24.2461V24.2462C15.6903 24.2976 15.6901 24.349 15.69 24.4004C15.6899 24.4769 15.6894 24.4769 15.6134 24.481L15.6129 24.481C15.1212 24.5075 14.6304 24.4988 14.1398 24.4535C13.6803 24.4111 13.2256 24.3391 12.7779 24.2286C10.8886 23.7627 9.28118 22.8149 7.95339 21.3932C7.53715 20.9476 7.16945 20.4641 6.84601 19.947C6.82713 19.9168 6.80839 19.8887 6.77552 19.8677C6.68171 19.8077 6.59535 19.825 6.5141 19.8864C6.39856 19.9736 6.27634 20.0499 6.15 20.1199C6.14753 20.1212 6.14509 20.1227 6.14265 20.1243C6.14073 20.1255 6.13881 20.1268 6.13687 20.128L6.13685 20.128C6.12057 20.1387 6.10342 20.15 6.077 20.1442C6.077 20.1194 6.07704 20.0945 6.07708 20.0696V20.0691C6.07717 20.0031 6.07726 19.9369 6.0767 19.8707C6.07649 19.8455 6.08632 19.8292 6.1083 19.8174C6.17349 19.7825 6.233 19.7392 6.29251 19.6958C6.33844 19.6623 6.38438 19.6289 6.43293 19.5993C6.51684 19.5482 6.54583 19.4738 6.51327 19.3827C6.50209 19.3514 6.48638 19.3216 6.47073 19.2919C6.46691 19.2847 6.4631 19.2775 6.45936 19.2703C5.80421 18.0037 5.44757 16.6572 5.38728 15.2333C5.35995 14.5882 5.39536 13.9457 5.49618 13.307C5.6126 12.5694 5.8106 11.8552 6.09316 11.1643C7.22689 8.39222 9.57985 6.29943 12.4672 5.49475C12.9868 5.34993 13.5151 5.25164 14.0518 5.19714C14.1655 5.1856 14.2794 5.17816 14.3934 5.17072L14.3934 5.17072C14.4844 5.16477 14.5755 5.15883 14.6663 5.15079C14.8013 5.13886 14.8868 5.06236 14.8764 4.93536C14.8736 4.90208 14.8728 4.86869 14.872 4.83528C14.8705 4.77458 14.8691 4.71382 14.856 4.65352C14.8499 4.62534 14.8517 4.5953 14.8535 4.56548V4.56547L14.8535 4.56543C14.8541 4.55602 14.8546 4.54662 14.8549 4.53732C14.8575 4.46011 14.8613 4.38291 14.8652 4.30572C14.8708 4.19447 14.8763 4.08326 14.878 3.9721C14.882 3.71123 14.8767 3.45019 14.8714 3.18922L14.8714 3.18908L14.8714 3.18896L14.8714 3.18872C14.8704 3.1417 14.8695 3.09469 14.8686 3.04768C14.8679 3.01472 14.8663 2.98177 14.8647 2.9488C14.8623 2.89859 14.8599 2.84835 14.8608 2.79802C14.8612 2.77847 14.8587 2.75993 14.8505 2.74139C14.8185 2.66882 14.7861 2.6483 14.6915 2.65122C14.172 2.66727 13.6556 2.71472 13.1419 2.79543C12.4221 2.90854 11.7175 3.08223 11.0312 3.32616C8.67841 4.16237 6.75095 5.58071 5.26403 7.58524C3.8451 9.49811 3.06731 11.6526 2.9041 14.028C2.86542 14.591 2.87092 15.1546 2.91201 15.718C2.94962 16.2337 3.01814 16.745 3.12103 17.2513C3.3483 18.3697 3.72599 19.4353 4.25313 20.4478C4.30331 20.5442 4.35913 20.635 4.44884 20.6999C4.46232 20.7097 4.46377 20.7219 4.46393 20.7357C4.46416 20.7558 4.46414 20.7759 4.46413 20.796L4.46412 21.8062C4.46412 23.9799 4.46413 26.1535 4.46418 28.3271L4.46416 28.3396V28.3396C4.46412 28.366 4.46408 28.3924 4.46582 28.4187C4.46818 28.4544 4.49038 28.4769 4.52453 28.4769C4.55862 28.4769 4.58094 28.4545 4.58333 28.4188C4.58507 28.3928 4.58502 28.3667 4.58497 28.3406L4.58495 28.333L4.58495 28.3272C4.58501 25.9913 4.58501 23.6555 4.58502 21.3196L4.58502 20.8191C4.58502 20.8141 4.58511 20.8091 4.58523 20.8041C4.5853 20.8013 4.58538 20.7986 4.58546 20.7958L4.58546 20.7957C4.58596 20.7784 4.58645 20.7612 4.58452 20.7441C4.5801 20.7053 4.59728 20.6827 4.62977 20.6641C4.65296 20.6508 4.67537 20.6361 4.69778 20.6215C4.72418 20.6042 4.75058 20.5869 4.77822 20.5719C4.82131 20.5485 4.86278 20.5224 4.90426 20.4962L4.90445 20.4961C4.97081 20.4543 5.03717 20.4125 5.11009 20.3819L5.11891 20.3783C5.22845 20.3324 5.33824 20.2864 5.42986 20.2075C5.43719 20.2011 5.44388 20.2037 5.45476 20.208C5.45547 20.2083 5.4562 20.2085 5.45695 20.2088C5.45695 20.2356 5.45686 20.2625 5.45677 20.2896V20.29C5.45654 20.3589 5.45631 20.4284 5.45755 20.498C5.45817 20.5327 5.43985 20.5451 5.41176 20.5571C5.25857 20.6224 5.10922 20.6955 4.96977 20.7872C4.93939 20.8072 4.9082 20.8259 4.87701 20.8447L4.87676 20.8449L4.8767 20.8449L4.87668 20.8449L4.87666 20.8449C4.80835 20.886 4.74003 20.9271 4.68005 20.9808C4.62743 21.0279 4.61571 21.0836 4.6494 21.1439C4.67099 21.1825 4.69366 21.2205 4.71711 21.2581C5.18215 22.0025 5.72026 22.6903 6.32668 23.3242C7.03661 24.0663 7.8293 24.7071 8.70367 25.2462C8.78536 25.2965 8.8571 25.3586 8.91464 25.4321C8.97652 25.5112 9.04858 25.579 9.12074 25.6468C9.13527 25.6605 9.14981 25.6742 9.16428 25.6879C9.24854 25.7682 9.32842 25.8488 9.37428 25.9607C9.3931 26.0066 9.41504 26.0512 9.43698 26.0958C9.4822 26.1877 9.52742 26.2796 9.54538 26.3831C9.5524 26.4236 9.56479 26.4628 9.57718 26.5021C9.59565 26.5607 9.61414 26.6194 9.61487 26.682C9.61606 26.7852 9.62753 26.8875 9.63901 26.9899L9.63901 26.9899C9.65009 27.0888 9.66118 27.1877 9.66301 27.2874C9.66395 27.3388 9.66756 27.3902 9.67116 27.4416V27.4418C9.67938 27.5591 9.68759 27.6764 9.66427 27.7935C9.65055 27.8624 9.64873 27.931 9.64875 28.0004C9.64884 28.3679 9.64883 28.7354 9.64882 29.1028C9.64881 29.3381 9.64881 29.5734 9.64883 29.8087ZM24.2105 19.9515C24.1993 19.9443 24.1857 19.9389 24.1697 19.952C24.1688 19.9943 24.1686 20.0352 24.1684 20.0754C24.1682 20.1201 24.168 20.1638 24.1669 20.2076C24.166 20.2414 24.1727 20.2667 24.2062 20.281C24.2871 20.3157 24.3604 20.3633 24.4336 20.4109C24.4647 20.4311 24.4958 20.4513 24.5274 20.4706C24.53 20.4721 24.5326 20.4737 24.5352 20.4753C24.5671 20.4948 24.6 20.515 24.6452 20.5159C24.6452 20.4913 24.645 20.467 24.6448 20.4429L24.6448 20.4422V20.4416C24.6443 20.3843 24.6439 20.3284 24.6461 20.2726C24.6478 20.2291 24.6338 20.2028 24.5973 20.1772C24.5297 20.1296 24.4572 20.0905 24.3848 20.0515C24.3258 20.0197 24.2668 19.9879 24.2105 19.9515ZM24.0439 20.1709C24.0046 20.1883 23.9897 20.1701 23.9895 20.1357C23.9892 20.0728 23.9893 20.01 23.9893 19.9462V19.9453C23.9894 19.9196 23.9894 19.8937 23.9894 19.8676C24.0412 19.8648 24.0472 19.8946 24.0468 19.931C24.0467 19.9485 24.0466 19.966 24.0465 19.9837L24.0465 19.9856C24.0461 20.0453 24.0457 20.1061 24.0439 20.1709ZM5.68355 20.1559C5.68356 20.1892 5.68357 20.2225 5.68358 20.2636C5.68453 20.2764 5.68414 20.2885 5.68376 20.3002C5.68298 20.3241 5.68226 20.3463 5.69307 20.3691C5.7082 20.3601 5.72313 20.3511 5.7379 20.3423L5.7558 20.3315C5.81134 20.2982 5.86483 20.2661 5.91857 20.2344C5.93603 20.2241 5.95045 20.2142 5.95029 20.1907C5.94985 20.1252 5.94991 20.0598 5.94999 19.9914C5.95001 19.9654 5.95004 19.939 5.95004 19.9119C5.8847 19.9315 5.83336 19.9579 5.78276 19.9851C5.68354 20.0384 5.68354 20.0394 5.68355 20.1545V20.1559ZM15.9648 28.7502L15.9648 29.1061C15.9276 29.0299 15.9149 28.9486 15.9038 28.8678C15.8858 28.737 15.8522 28.6101 15.8185 28.483L15.8152 28.4704C15.8137 28.4646 15.8118 28.4588 15.8099 28.453C15.8056 28.4401 15.8014 28.4273 15.8013 28.4144C15.8008 28.3572 15.7962 28.3002 15.7915 28.2432C15.7847 28.1591 15.7779 28.075 15.7844 27.9905C15.7915 27.8969 15.7703 27.8086 15.739 27.722C15.7255 27.6848 15.7184 27.6475 15.72 27.608C15.7218 27.5666 15.7211 27.5252 15.7204 27.4837V27.4837C15.7192 27.4088 15.718 27.3339 15.7312 27.2592C15.7364 27.2297 15.7433 27.2056 15.7681 27.189C15.8209 27.1534 15.8676 27.1113 15.9127 27.0389L15.9127 27.1469C15.9127 27.2234 15.9127 27.2999 15.9127 27.3763C15.9127 27.6137 15.9127 27.8511 15.9125 28.0885L15.9125 28.0907L15.9125 28.1008C15.9123 28.1413 15.9122 28.182 15.9229 28.2211C15.9664 28.3789 15.9657 28.5399 15.965 28.7076V28.7077C15.9649 28.7218 15.9648 28.736 15.9648 28.7502ZM15.643 27.1124C15.6382 27.0996 15.6274 27.1012 15.6176 27.1164C15.6173 27.1289 15.6178 27.1395 15.6277 27.1372C15.639 27.1347 15.6471 27.1232 15.643 27.1124ZM15.4315 27.1048C15.4481 27.1154 15.4538 27.1263 15.4418 27.1388C15.4361 27.1447 15.4281 27.1472 15.4222 27.1391C15.4134 27.1267 15.4155 27.1147 15.4315 27.1048ZM15.6873 29.6556C15.6896 29.6604 15.6935 29.6644 15.6995 29.6707C15.6996 29.6685 15.6997 29.6664 15.6998 29.6644L15.7 29.661L15.7 29.661L15.7 29.661C15.7007 29.6496 15.7012 29.6409 15.7 29.6324C15.6997 29.6298 15.6998 29.6269 15.6999 29.624C15.7003 29.6152 15.7007 29.6059 15.6884 29.6013C15.6844 29.6348 15.6831 29.6465 15.6873 29.6556ZM15.6493 29.4252C15.6467 29.4295 15.6468 29.4352 15.647 29.4401C15.6471 29.4481 15.6473 29.454 15.6359 29.4491C15.6296 29.4464 15.6269 29.4296 15.6269 29.4193C15.6275 29.3088 15.6078 29.201 15.5882 29.0931C15.5836 29.0677 15.579 29.0423 15.5746 29.0169L15.5741 29.0143L15.5737 29.0119C15.5716 29 15.5695 28.9879 15.5695 28.9758C15.5693 28.7271 15.5693 28.4784 15.5693 28.2198L15.5693 28.07C15.6306 28.2054 15.6603 28.3322 15.6618 28.4638C15.6647 28.7214 15.6634 28.9791 15.662 29.2367C15.6618 29.279 15.6581 29.3214 15.6542 29.3659L15.654 29.3677C15.6536 29.373 15.6531 29.3783 15.6526 29.3836C15.6515 29.3972 15.6503 29.411 15.6493 29.4252ZM15.6036 29.907C15.6011 29.8965 15.5949 29.8869 15.5847 29.8709L15.5847 29.8709C15.5804 29.9096 15.58 29.9428 15.59 29.987C15.6024 29.9412 15.6073 29.9231 15.6036 29.907ZM15.2987 27.0748C15.2983 27.0827 15.2993 27.0902 15.3003 27.0975C15.3026 27.1139 15.3047 27.129 15.2891 27.1449C15.2878 27.14 15.2864 27.1352 15.2851 27.1305C15.2841 27.1273 15.2832 27.1241 15.2823 27.121C15.2768 27.1018 15.2716 27.084 15.2677 27.0658C15.2659 27.0574 15.2643 27.0423 15.2803 27.0443C15.2922 27.0457 15.2956 27.0579 15.2987 27.0748Z" fill="#010101"/>
<path d="M13.7031 12.4042C13.646 12.4201 13.5953 12.4341 13.5445 12.4478C13.5007 12.4596 13.4581 12.4645 13.4179 12.4349C13.3953 12.4183 13.3679 12.4184 13.3407 12.4184L13.338 12.4184C13.0797 12.4188 12.8214 12.419 12.5631 12.4185C12.5213 12.4184 12.4815 12.4282 12.4419 12.438C12.42 12.4435 12.3982 12.4489 12.376 12.4526C12.3443 12.458 12.3141 12.4472 12.2831 12.4362C12.2539 12.4258 12.2241 12.4152 12.1916 12.4175C12.1003 12.4238 12.0088 12.4273 11.9173 12.4308H11.9173C11.8561 12.4331 11.795 12.4354 11.7339 12.4386C11.6855 12.4411 11.6371 12.4448 11.5887 12.4486L11.5886 12.4486C11.5179 12.454 11.4473 12.4595 11.3765 12.4611C11.1673 12.4661 10.9605 12.4473 10.7625 12.3723C10.4955 12.2711 10.3564 12.0761 10.3365 11.7927C10.3337 11.7521 10.3437 11.7149 10.3537 11.6773C10.3544 11.6749 10.355 11.6726 10.3556 11.6703C10.3971 11.5144 10.4284 11.3569 10.433 11.195C10.4331 11.1912 10.4333 11.1874 10.4334 11.1836L10.4334 11.1833C10.4347 11.1505 10.4359 11.1163 10.416 11.09C10.3756 11.0367 10.3973 10.9946 10.4226 10.9452L10.4251 10.9404C10.5119 10.7713 10.5555 10.5872 10.5978 10.4034C10.6464 10.1925 10.6841 9.97944 10.7159 9.7654C10.721 9.73129 10.7321 9.70186 10.7512 9.67359C10.814 9.58078 10.8762 9.48759 10.9384 9.3944C11.0704 9.1967 11.2023 8.99901 11.3395 8.80501C11.4912 8.59062 11.684 8.41255 11.8924 8.25384C12.5147 7.77983 13.21 7.46955 13.9824 7.33763C14.1933 7.3016 14.4067 7.2879 14.621 7.28593C14.6935 7.28526 14.7564 7.31089 14.8193 7.34034C14.8521 7.35567 14.8601 7.38642 14.868 7.41656L14.868 7.41664C14.8692 7.42104 14.8703 7.42543 14.8716 7.42975C14.9265 7.62402 14.9281 7.82385 14.9297 8.02293L14.9306 8.13114C14.9337 8.49155 14.9367 8.85209 14.9289 9.21234C14.9212 9.56492 14.9189 9.91741 14.917 10.27C14.9163 10.4035 14.8529 10.4342 14.77 10.4463C14.5787 10.4744 14.4391 10.5808 14.3339 10.7376C14.2285 10.8946 14.1734 11.0715 14.1335 11.2541C14.0747 11.524 14.0571 11.7985 14.0578 12.0734C14.0582 12.193 14.0071 12.2666 13.909 12.3201C13.8453 12.3548 13.7788 12.3818 13.7031 12.4042Z" fill="#010101"/>
<path d="M14.9477 13.1315C15.1217 12.883 15.2789 12.6316 15.3983 12.3582L15.3989 12.3569C15.4065 12.3393 15.414 12.3223 15.4289 12.3095C15.5824 12.1783 15.6539 12.0016 15.6941 11.8118C15.7472 11.5607 15.7663 11.3063 15.7333 11.0502C15.7187 10.9362 15.6854 10.828 15.6243 10.7297C15.5509 10.6119 15.4471 10.53 15.3163 10.488C15.2329 10.4611 15.1995 10.4024 15.2003 10.326C15.2013 10.229 15.2 10.132 15.1988 10.035C15.1961 9.82939 15.1935 9.6238 15.2123 9.4185C15.2147 9.39174 15.2146 9.36472 15.2145 9.33774C15.2144 9.33135 15.2144 9.32497 15.2144 9.31859C15.2145 9.20337 15.2141 9.08815 15.2137 8.97293C15.2128 8.70763 15.2119 8.44234 15.2162 8.17713C15.2179 8.06746 15.2116 7.95824 15.2052 7.84906C15.1988 7.73942 15.1924 7.62982 15.1943 7.51986C15.1966 7.38192 15.2697 7.31114 15.4111 7.30526C15.7045 7.29306 15.9928 7.33603 16.2796 7.38637C16.8384 7.48442 17.3692 7.66497 17.8636 7.94665C18.0327 8.04296 18.1947 8.14983 18.3508 8.26577C18.3914 8.29585 18.4261 8.33049 18.4573 8.3702C18.5704 8.51448 18.6839 8.65844 18.7974 8.8024C18.8833 8.91135 18.9692 9.0203 19.055 9.12938C19.3591 9.51627 19.5503 9.95488 19.649 10.4351C19.6911 10.6394 19.7115 10.8465 19.7153 11.0551L19.7153 11.0579C19.7159 11.0905 19.7165 11.123 19.6954 11.1507C19.6649 11.1908 19.6623 11.2364 19.6619 11.2847C19.6615 11.3443 19.6618 11.404 19.662 11.4637C19.6626 11.5983 19.6632 11.733 19.6555 11.8677C19.6293 12.3269 19.4981 12.7557 19.2898 13.1631C19.1631 13.411 19.0111 13.6427 18.8411 13.8629C18.8189 13.8915 18.8004 13.9204 18.7897 13.9563C18.7706 14.0205 18.7313 14.0747 18.6924 14.1284L18.6868 14.1361C18.5725 14.2938 18.4432 14.4389 18.3119 14.5824C18.2359 14.6654 18.1587 14.7472 18.0814 14.8291L18.0813 14.8291C17.928 14.9916 17.7746 15.1541 17.6312 15.3258C17.3422 15.6719 17.0779 16.0346 16.8752 16.4392C16.7403 16.7084 16.6373 16.9885 16.5919 17.2877C16.5782 17.3782 16.5694 17.4693 16.5672 17.5611C16.5647 17.6674 16.541 17.7698 16.5031 17.8691C16.4635 17.9729 16.3975 18.0271 16.2774 18.0263C16.036 18.0245 15.7944 18.0337 15.5541 18.0632C15.5159 18.0678 15.4764 18.0657 15.4378 18.0623C15.0762 18.0308 14.7138 18.0277 14.3513 18.0246H14.3512C14.3222 18.0243 14.2932 18.0241 14.2641 18.0238C14.2057 18.0233 14.1473 18.0294 14.0927 18.0521C14.0682 18.0623 14.0478 18.0634 14.0219 18.0534C13.9347 18.0197 13.844 18.0216 13.7533 18.0235C13.7274 18.0241 13.7015 18.0246 13.6757 18.0244C13.6651 18.0242 13.649 18.026 13.6446 18.0328C13.6138 18.0802 13.5747 18.0684 13.5362 18.0568C13.5327 18.0558 13.5292 18.0547 13.5257 18.0537C13.5234 18.053 13.521 18.0524 13.5186 18.0517C13.4169 18.0247 13.344 17.9579 13.2842 17.875C13.2151 17.7794 13.1731 17.6709 13.1364 17.56C13.1029 17.4588 13.0851 17.3542 13.0673 17.2497C13.0614 17.2151 13.0555 17.1804 13.0491 17.1459C13.0385 17.0893 13.0482 17.0331 13.0579 16.9772L13.0579 16.9772C13.061 16.959 13.0642 16.9409 13.0666 16.9227C13.1454 16.3363 13.2533 15.7562 13.4504 15.1961C13.5149 15.0128 13.5915 14.8346 13.6834 14.6631C13.7072 14.6187 13.7364 14.5792 13.7708 14.5423C14.188 14.0954 14.59 13.6358 14.9477 13.1315Z" fill="#010101"/>
</g>
<defs>
<clipPath id="clip0_138_91">
<rect width="30" height="30" fill="white"/>
</clipPath>
</defs>
</svg>
