<svg width="1440" height="2069" viewBox="0 0 1440 2069" fill="none" xmlns="http://www.w3.org/2000/svg">
<rect width="1440" height="2069" fill="white"/>
<mask id="path-1-inside-1_358_11" fill="white">
<path d="M699.9 48.0874C610.833 51.6874 519.9 86.2208 447.9 143.954C428.967 159.287 398.967 189.287 384.033 207.821C331.767 273.154 301.633 344.621 290.3 429.287C287.233 453.154 287.233 507.821 290.3 531.821C295.367 569.821 304.967 607.687 317.767 639.687C325.5 659.021 337.1 682.754 340.7 686.621C343.1 689.287 343.233 693.154 343.5 827.287C343.9 948.754 344.167 965.154 345.9 965.154C347.633 965.154 347.9 948.754 348.3 826.887L348.567 688.621L356.3 684.087C364.167 679.287 377.233 672.487 378.567 672.487C378.967 672.487 379.233 674.887 379.233 677.687C379.233 682.887 379.1 683.021 368.967 688.487C355.9 695.421 349.9 699.954 349.9 702.754C349.9 705.821 370.167 735.687 384.033 753.154C399.1 772.087 435.9 808.754 453.9 822.621C461.633 828.621 474.567 837.821 482.567 843.154C499.9 854.621 515.1 869.821 519.9 880.354C528.033 898.087 527.9 895.687 527.633 991.154C527.5 1048.22 526.967 1082.22 525.9 1089.15C522.033 1116.62 522.433 1121.82 528.433 1121.82C533.367 1121.82 537.1 1117.55 536.967 1112.09C536.967 1109.69 536.167 1102.35 535.233 1095.82C534.3 1089.15 533.367 1074.49 532.967 1063.15C532.033 1036.89 534.967 923.421 536.7 914.087C538.7 904.221 543.767 893.421 547.9 890.087C554.833 884.621 561.1 884.887 580.7 891.687C608.7 901.154 644.833 909.421 670.3 911.954C680.567 912.887 683.367 915.021 688.7 925.554C691.367 931.021 691.9 934.621 692.833 955.821C695.633 1018.09 696.7 1036.49 698.033 1045.15C699.233 1052.22 699.1 1055.95 697.9 1061.29C696.167 1068.49 696.7 1083.42 699.367 1101.82C700.167 1107.29 701.1 1118.35 701.633 1126.49C702.167 1134.49 703.367 1142.49 704.167 1143.95C707.633 1149.95 708.7 1164.35 709.9 1219.15C710.567 1250.35 712.033 1284.75 713.1 1295.82C716.433 1330.22 717.1 1385.69 714.7 1425.82C709.633 1508.09 708.833 1570.89 711.9 1618.49C714.7 1661.82 716.967 1778.62 716.033 1829.82C714.7 1894.62 712.567 1929.69 708.033 1956.49C706.833 1963.42 705.9 1971.42 705.9 1974.09C705.9 1987.82 712.033 2000.49 718.7 2000.49C724.033 2000.49 725.367 1992.89 724.7 1964.49C723.9 1921.42 724.033 1877.15 725.233 1833.15C726.433 1784.89 724.567 1686.09 720.967 1614.49C718.967 1574.62 718.967 1562.75 720.433 1516.49C721.367 1487.55 722.7 1443.15 723.5 1417.82C724.167 1392.49 724.967 1337.29 725.1 1295.15C725.367 1219.95 725.367 1217.95 728.833 1192.49C732.967 1162.75 736.433 1132.49 737.767 1113.15C738.967 1097.55 736.567 1069.02 733.367 1061.55C730.033 1053.55 728.167 1032.49 729.367 1013.82L730.433 997.154L731.5 1007.15C732.033 1012.62 733.367 1022.35 734.567 1028.75C735.767 1035.15 737.233 1047.42 737.9 1056.09C738.7 1064.75 739.633 1075.42 740.167 1079.82C741.233 1088.22 741.633 1218.09 740.7 1309.82C740.167 1371.69 741.233 1397.29 744.3 1400.75C746.967 1403.95 754.167 1403.82 756.967 1400.75C760.167 1397.15 759.767 1383.55 755.9 1361.15C753.233 1346.49 752.167 1334.22 751.1 1304.49C749.367 1259.42 750.433 1205.02 753.1 1197.15C754.3 1193.82 755.633 1178.62 756.833 1156.49C758.433 1122.89 758.7 1093.82 757.767 1004.49C757.367 963.554 758.7 947.954 764.3 922.754C766.167 914.487 767.1 912.221 769.233 911.821C770.7 911.554 778.833 910.354 787.233 909.154C810.033 905.821 845.5 896.354 869.9 887.287C897.1 877.021 903.233 876.754 907.9 885.821C910.167 890.354 910.567 913.421 908.433 923.154C904.433 941.821 904.033 946.487 906.567 951.554C909.367 957.554 913.1 958.887 917.633 955.554C922.833 951.687 923.9 946.754 922.033 935.821C917.1 908.621 918.967 889.287 927.9 873.021C935.9 858.221 940.7 853.287 958.433 841.287C1006.43 809.021 1048.03 767.554 1078.57 721.954C1089.37 705.554 1090.97 700.087 1085.23 697.154C1083.77 696.487 1078.57 693.554 1073.5 690.754C1064.83 685.821 1064.57 685.554 1064.57 680.487C1064.57 677.554 1065.1 675.154 1065.77 675.154C1066.43 675.154 1071.37 677.687 1076.83 680.887C1087.63 687.287 1093.37 689.554 1096.97 688.754C1101.63 687.821 1124.43 637.021 1132.97 608.487C1152.3 543.954 1156.97 479.287 1147.1 414.221C1126.43 278.354 1039.5 157.821 916.967 95.4208C872.433 72.7541 829.633 59.1541 780.433 51.9541C761.1 49.0208 728.433 47.1541 725.633 48.6208C723.367 49.8208 723.233 53.2874 723.233 91.1541C723.233 125.421 723.5 132.621 725.233 134.221C726.433 135.554 731.633 136.487 740.833 137.154C772.967 139.421 809.9 147.021 837.367 157.154C857.767 164.621 891.633 181.821 908.567 193.154C960.3 227.687 999.5 272.087 1026.97 326.887C1053.23 379.554 1064.7 431.954 1062.83 491.154C1061.1 542.621 1051.37 583.154 1029.5 628.887C1020.57 647.554 1020.57 648.221 1028.3 653.154C1031.9 655.421 1032.43 656.621 1032.57 661.421C1032.57 664.621 1032.3 667.154 1031.9 667.154C1031.63 667.154 1029.37 665.954 1026.97 664.487C1024.57 663.021 1020.3 661.821 1017.63 661.821C1013.63 661.821 1012.17 662.621 1009.63 666.087C973.233 716.487 940.433 748.354 898.433 774.087C857.767 799.154 809.5 815.954 761.633 821.821C754.433 822.621 747.9 822.887 747.1 822.354C744.833 821.021 746.7 767.821 749.233 758.087C752.433 746.087 754.033 744.487 763.1 744.487C768.967 744.487 771.1 743.954 771.767 742.354C773.1 738.887 772.7 633.287 771.233 631.154C769.367 628.221 658.033 628.887 655.767 631.954C653.9 634.221 653.233 731.554 654.967 739.154L656.033 743.821L695.233 744.487L734.567 745.154L737.5 751.154C741.367 759.021 743.233 774.887 743.233 800.754V821.821L739.767 823.154C737.9 823.954 729.633 824.487 721.5 824.487C605.9 824.487 498.567 767.287 434.033 671.287C429.633 664.754 425.233 659.154 424.3 658.754C421.767 657.954 417.5 659.821 409.633 665.021C405.9 667.554 402.3 669.421 401.633 669.021C401.1 668.621 400.567 666.354 400.567 663.821C400.567 659.687 401.367 658.621 408.567 653.821C414.3 649.954 416.567 647.554 416.567 645.421C416.567 643.821 413.9 637.021 410.7 630.487C393.633 595.154 383.1 558.621 378.433 518.087C375.767 495.954 376.567 451.287 379.767 429.821C386.167 388.754 401.1 345.687 420.833 311.154C456.033 249.821 504.967 203.554 567.233 172.621C608.7 152.087 650.167 140.754 698.167 137.154C706.033 136.487 710.3 135.554 711.5 134.221C713.367 131.954 714.7 76.2208 713.233 59.4208C712.167 48.2208 711.633 47.6874 699.9 48.0874ZM1038.83 668.754C1038.57 670.487 1038.3 669.154 1038.3 665.821C1038.3 662.487 1038.57 661.154 1038.83 662.754C1039.1 664.487 1039.1 667.154 1038.83 668.754ZM396.567 667.021C396.567 671.554 395.9 672.621 391.9 675.021L387.233 677.687V671.821C387.233 666.754 387.767 665.687 390.967 663.954C396.167 661.021 396.567 661.287 396.567 667.021ZM1053.37 667.421C1060.3 671.687 1060.57 671.954 1060.57 677.554V683.421L1054.3 679.821C1050.7 677.821 1046.83 675.154 1045.63 674.087C1042.97 671.821 1042.3 663.154 1044.7 663.154C1045.5 663.154 1049.37 665.154 1053.37 667.421ZM718.567 964.487C720.033 974.087 720.7 985.287 720.433 994.487C719.367 1025.82 720.167 1050.35 722.167 1057.82C723.767 1063.15 724.567 1074.89 725.1 1099.95C725.9 1130.22 725.633 1138.35 723.233 1161.29C721.633 1175.95 719.633 1192.89 718.7 1199.15C716.833 1210.35 716.833 1209.95 716.7 1177.15C716.567 1141.15 714.967 1113.69 711.9 1094.22C709.5 1079.69 709.1 1033.69 711.233 1029.69C713.5 1025.69 710.567 964.621 707.767 954.487C706.167 948.487 705.767 943.421 706.3 934.087C706.967 923.287 707.367 921.421 710.167 919.287L713.233 916.754L714.833 932.887C715.633 941.821 717.367 956.087 718.567 964.487ZM751.9 971.154C754.033 1005.42 747.5 973.687 743.633 931.154C743.1 924.887 743.5 923.154 746.167 919.821L749.233 915.821L750.033 935.821C750.567 946.887 751.367 962.754 751.9 971.154ZM723.767 930.354C726.7 940.887 727.5 950.087 726.567 961.154C725.633 970.887 723.233 975.287 723.233 967.154C723.233 964.887 722.433 957.554 721.367 950.754C720.3 944.087 719.233 933.954 718.833 928.621C718.3 919.954 718.433 919.021 720.033 921.154C720.967 922.487 722.7 926.621 723.767 930.354ZM741.633 976.887C741.9 993.287 741.633 996.621 740.3 994.487C739.367 992.887 738.567 984.487 738.167 972.487C737.767 956.221 737.9 953.421 739.367 954.887C740.7 956.087 741.367 961.954 741.633 976.887ZM749.767 1006.49C753.1 1032.22 754.033 1138.22 750.833 1141.42C750.567 1141.69 749.9 1120.09 749.367 1093.55C748.167 1033.82 747.5 1014.62 746.567 1001.82C745.5 988.087 747.767 991.421 749.767 1006.49Z"/>
</mask>
<path d="M699.9 48.0874C610.833 51.6874 519.9 86.2208 447.9 143.954C428.967 159.287 398.967 189.287 384.033 207.821C331.767 273.154 301.633 344.621 290.3 429.287C287.233 453.154 287.233 507.821 290.3 531.821C295.367 569.821 304.967 607.687 317.767 639.687C325.5 659.021 337.1 682.754 340.7 686.621C343.1 689.287 343.233 693.154 343.5 827.287C343.9 948.754 344.167 965.154 345.9 965.154C347.633 965.154 347.9 948.754 348.3 826.887L348.567 688.621L356.3 684.087C364.167 679.287 377.233 672.487 378.567 672.487C378.967 672.487 379.233 674.887 379.233 677.687C379.233 682.887 379.1 683.021 368.967 688.487C355.9 695.421 349.9 699.954 349.9 702.754C349.9 705.821 370.167 735.687 384.033 753.154C399.1 772.087 435.9 808.754 453.9 822.621C461.633 828.621 474.567 837.821 482.567 843.154C499.9 854.621 515.1 869.821 519.9 880.354C528.033 898.087 527.9 895.687 527.633 991.154C527.5 1048.22 526.967 1082.22 525.9 1089.15C522.033 1116.62 522.433 1121.82 528.433 1121.82C533.367 1121.82 537.1 1117.55 536.967 1112.09C536.967 1109.69 536.167 1102.35 535.233 1095.82C534.3 1089.15 533.367 1074.49 532.967 1063.15C532.033 1036.89 534.967 923.421 536.7 914.087C538.7 904.221 543.767 893.421 547.9 890.087C554.833 884.621 561.1 884.887 580.7 891.687C608.7 901.154 644.833 909.421 670.3 911.954C680.567 912.887 683.367 915.021 688.7 925.554C691.367 931.021 691.9 934.621 692.833 955.821C695.633 1018.09 696.7 1036.49 698.033 1045.15C699.233 1052.22 699.1 1055.95 697.9 1061.29C696.167 1068.49 696.7 1083.42 699.367 1101.82C700.167 1107.29 701.1 1118.35 701.633 1126.49C702.167 1134.49 703.367 1142.49 704.167 1143.95C707.633 1149.95 708.7 1164.35 709.9 1219.15C710.567 1250.35 712.033 1284.75 713.1 1295.82C716.433 1330.22 717.1 1385.69 714.7 1425.82C709.633 1508.09 708.833 1570.89 711.9 1618.49C714.7 1661.82 716.967 1778.62 716.033 1829.82C714.7 1894.62 712.567 1929.69 708.033 1956.49C706.833 1963.42 705.9 1971.42 705.9 1974.09C705.9 1987.82 712.033 2000.49 718.7 2000.49C724.033 2000.49 725.367 1992.89 724.7 1964.49C723.9 1921.42 724.033 1877.15 725.233 1833.15C726.433 1784.89 724.567 1686.09 720.967 1614.49C718.967 1574.62 718.967 1562.75 720.433 1516.49C721.367 1487.55 722.7 1443.15 723.5 1417.82C724.167 1392.49 724.967 1337.29 725.1 1295.15C725.367 1219.95 725.367 1217.95 728.833 1192.49C732.967 1162.75 736.433 1132.49 737.767 1113.15C738.967 1097.55 736.567 1069.02 733.367 1061.55C730.033 1053.55 728.167 1032.49 729.367 1013.82L730.433 997.154L731.5 1007.15C732.033 1012.62 733.367 1022.35 734.567 1028.75C735.767 1035.15 737.233 1047.42 737.9 1056.09C738.7 1064.75 739.633 1075.42 740.167 1079.82C741.233 1088.22 741.633 1218.09 740.7 1309.82C740.167 1371.69 741.233 1397.29 744.3 1400.75C746.967 1403.95 754.167 1403.82 756.967 1400.75C760.167 1397.15 759.767 1383.55 755.9 1361.15C753.233 1346.49 752.167 1334.22 751.1 1304.49C749.367 1259.42 750.433 1205.02 753.1 1197.15C754.3 1193.82 755.633 1178.62 756.833 1156.49C758.433 1122.89 758.7 1093.82 757.767 1004.49C757.367 963.554 758.7 947.954 764.3 922.754C766.167 914.487 767.1 912.221 769.233 911.821C770.7 911.554 778.833 910.354 787.233 909.154C810.033 905.821 845.5 896.354 869.9 887.287C897.1 877.021 903.233 876.754 907.9 885.821C910.167 890.354 910.567 913.421 908.433 923.154C904.433 941.821 904.033 946.487 906.567 951.554C909.367 957.554 913.1 958.887 917.633 955.554C922.833 951.687 923.9 946.754 922.033 935.821C917.1 908.621 918.967 889.287 927.9 873.021C935.9 858.221 940.7 853.287 958.433 841.287C1006.43 809.021 1048.03 767.554 1078.57 721.954C1089.37 705.554 1090.97 700.087 1085.23 697.154C1083.77 696.487 1078.57 693.554 1073.5 690.754C1064.83 685.821 1064.57 685.554 1064.57 680.487C1064.57 677.554 1065.1 675.154 1065.77 675.154C1066.43 675.154 1071.37 677.687 1076.83 680.887C1087.63 687.287 1093.37 689.554 1096.97 688.754C1101.63 687.821 1124.43 637.021 1132.97 608.487C1152.3 543.954 1156.97 479.287 1147.1 414.221C1126.43 278.354 1039.5 157.821 916.967 95.4208C872.433 72.7541 829.633 59.1541 780.433 51.9541C761.1 49.0208 728.433 47.1541 725.633 48.6208C723.367 49.8208 723.233 53.2874 723.233 91.1541C723.233 125.421 723.5 132.621 725.233 134.221C726.433 135.554 731.633 136.487 740.833 137.154C772.967 139.421 809.9 147.021 837.367 157.154C857.767 164.621 891.633 181.821 908.567 193.154C960.3 227.687 999.5 272.087 1026.97 326.887C1053.23 379.554 1064.7 431.954 1062.83 491.154C1061.1 542.621 1051.37 583.154 1029.5 628.887C1020.57 647.554 1020.57 648.221 1028.3 653.154C1031.9 655.421 1032.43 656.621 1032.57 661.421C1032.57 664.621 1032.3 667.154 1031.9 667.154C1031.63 667.154 1029.37 665.954 1026.97 664.487C1024.57 663.021 1020.3 661.821 1017.63 661.821C1013.63 661.821 1012.17 662.621 1009.63 666.087C973.233 716.487 940.433 748.354 898.433 774.087C857.767 799.154 809.5 815.954 761.633 821.821C754.433 822.621 747.9 822.887 747.1 822.354C744.833 821.021 746.7 767.821 749.233 758.087C752.433 746.087 754.033 744.487 763.1 744.487C768.967 744.487 771.1 743.954 771.767 742.354C773.1 738.887 772.7 633.287 771.233 631.154C769.367 628.221 658.033 628.887 655.767 631.954C653.9 634.221 653.233 731.554 654.967 739.154L656.033 743.821L695.233 744.487L734.567 745.154L737.5 751.154C741.367 759.021 743.233 774.887 743.233 800.754V821.821L739.767 823.154C737.9 823.954 729.633 824.487 721.5 824.487C605.9 824.487 498.567 767.287 434.033 671.287C429.633 664.754 425.233 659.154 424.3 658.754C421.767 657.954 417.5 659.821 409.633 665.021C405.9 667.554 402.3 669.421 401.633 669.021C401.1 668.621 400.567 666.354 400.567 663.821C400.567 659.687 401.367 658.621 408.567 653.821C414.3 649.954 416.567 647.554 416.567 645.421C416.567 643.821 413.9 637.021 410.7 630.487C393.633 595.154 383.1 558.621 378.433 518.087C375.767 495.954 376.567 451.287 379.767 429.821C386.167 388.754 401.1 345.687 420.833 311.154C456.033 249.821 504.967 203.554 567.233 172.621C608.7 152.087 650.167 140.754 698.167 137.154C706.033 136.487 710.3 135.554 711.5 134.221C713.367 131.954 714.7 76.2208 713.233 59.4208C712.167 48.2208 711.633 47.6874 699.9 48.0874ZM1038.83 668.754C1038.57 670.487 1038.3 669.154 1038.3 665.821C1038.3 662.487 1038.57 661.154 1038.83 662.754C1039.1 664.487 1039.1 667.154 1038.83 668.754ZM396.567 667.021C396.567 671.554 395.9 672.621 391.9 675.021L387.233 677.687V671.821C387.233 666.754 387.767 665.687 390.967 663.954C396.167 661.021 396.567 661.287 396.567 667.021ZM1053.37 667.421C1060.3 671.687 1060.57 671.954 1060.57 677.554V683.421L1054.3 679.821C1050.7 677.821 1046.83 675.154 1045.63 674.087C1042.97 671.821 1042.3 663.154 1044.7 663.154C1045.5 663.154 1049.37 665.154 1053.37 667.421ZM718.567 964.487C720.033 974.087 720.7 985.287 720.433 994.487C719.367 1025.82 720.167 1050.35 722.167 1057.82C723.767 1063.15 724.567 1074.89 725.1 1099.95C725.9 1130.22 725.633 1138.35 723.233 1161.29C721.633 1175.95 719.633 1192.89 718.7 1199.15C716.833 1210.35 716.833 1209.95 716.7 1177.15C716.567 1141.15 714.967 1113.69 711.9 1094.22C709.5 1079.69 709.1 1033.69 711.233 1029.69C713.5 1025.69 710.567 964.621 707.767 954.487C706.167 948.487 705.767 943.421 706.3 934.087C706.967 923.287 707.367 921.421 710.167 919.287L713.233 916.754L714.833 932.887C715.633 941.821 717.367 956.087 718.567 964.487ZM751.9 971.154C754.033 1005.42 747.5 973.687 743.633 931.154C743.1 924.887 743.5 923.154 746.167 919.821L749.233 915.821L750.033 935.821C750.567 946.887 751.367 962.754 751.9 971.154ZM723.767 930.354C726.7 940.887 727.5 950.087 726.567 961.154C725.633 970.887 723.233 975.287 723.233 967.154C723.233 964.887 722.433 957.554 721.367 950.754C720.3 944.087 719.233 933.954 718.833 928.621C718.3 919.954 718.433 919.021 720.033 921.154C720.967 922.487 722.7 926.621 723.767 930.354ZM741.633 976.887C741.9 993.287 741.633 996.621 740.3 994.487C739.367 992.887 738.567 984.487 738.167 972.487C737.767 956.221 737.9 953.421 739.367 954.887C740.7 956.087 741.367 961.954 741.633 976.887ZM749.767 1006.49C753.1 1032.22 754.033 1138.22 750.833 1141.42C750.567 1141.69 749.9 1120.09 749.367 1093.55C748.167 1033.82 747.5 1014.62 746.567 1001.82C745.5 988.087 747.767 991.421 749.767 1006.49Z" fill="#E9E8E8" stroke="#9E9696" stroke-width="2" mask="url(#path-1-inside-1_358_11)"/>
<path d="M637.452 229.604L637.45 229.605C621.627 237.184 605.148 248.749 595.465 258.962C592.157 262.536 584.311 272.906 578.048 282.101C578.047 282.101 578.047 282.101 578.047 282.102L566.905 298.682L563.859 314.445C563.858 314.445 563.858 314.446 563.858 314.447C562.257 323.117 559.586 333.679 557.969 337.861C557.238 339.922 556.576 341.907 556.131 343.474C555.908 344.259 555.742 344.929 555.648 345.445C555.601 345.704 555.575 345.914 555.566 346.075C555.562 346.156 555.562 346.218 555.566 346.264C555.569 346.307 555.574 346.327 555.575 346.329C555.575 346.329 555.575 346.329 555.575 346.329C555.801 347.008 555.908 348.118 555.936 349.467C555.963 350.834 555.908 352.504 555.782 354.338C555.531 358.007 554.995 362.359 554.258 366.312L554.258 366.312L554.257 366.319C553.267 371.272 553.243 375.32 554.215 378.803C555.185 382.277 557.157 385.231 560.231 387.979C562.352 389.835 564.15 391.221 566.455 392.269C568.763 393.319 571.611 394.044 575.84 394.524C584.318 395.486 598.212 395.454 624.161 395.187C625.825 395.165 627.443 395.145 629.015 395.125C641.902 394.96 651.74 394.834 659.276 394.469C667.745 394.058 673.238 393.347 676.856 391.97C678.653 391.286 679.967 390.444 680.95 389.409C681.932 388.375 682.607 387.123 683.09 385.581C683.963 382.794 684.188 379.144 684.489 374.257C684.525 373.675 684.562 373.075 684.601 372.458C685.336 359.828 687.309 349.731 690.557 342.124C693.807 334.513 698.347 329.367 704.222 326.701C705.855 325.917 707.574 325.106 709.03 324.418C710.552 323.7 711.787 323.118 712.335 322.844C712.424 322.794 712.553 322.679 712.696 322.368C712.843 322.046 712.987 321.554 713.118 320.811C713.38 319.325 713.576 316.942 713.717 313.152C714 305.58 714.067 292.491 714.067 269.954V217.796L711.059 215.414C711.058 215.414 711.058 215.413 711.057 215.413C709.646 214.31 706.842 213.517 703.092 213.202C699.37 212.889 694.809 213.053 689.975 213.782C667.886 217.108 655.535 220.828 637.452 229.604Z" fill="#E9E8E8" stroke="#9E9696"/>
<path d="M744.267 356.489C744.267 372.108 742.669 379.445 737.641 386.244C735.916 388.766 732.864 393.676 730.875 397.388C721.381 415.306 702.818 440.274 682.402 462.558L682.4 462.561C677.214 468.145 671.65 475.572 669.812 479.115C662.115 494.378 654.259 523.647 650.262 551.889C649.663 556.28 649.401 559.313 649.5 562.17C649.598 565.023 650.057 567.721 650.92 571.441C652.048 576.281 653.538 580.783 655.156 584.399C656.784 588.037 658.511 590.709 660.079 591.963L660.079 591.963L660.087 591.97C660.082 591.966 660.083 591.966 660.092 591.97C660.114 591.98 660.187 592.013 660.347 592.057C660.544 592.112 660.818 592.169 661.169 592.227C661.871 592.343 662.843 592.458 664.059 592.57C666.488 592.794 669.854 593.003 673.888 593.194C681.954 593.575 692.67 593.879 703.859 594.07C726.25 594.454 750.487 594.386 759.188 593.589L759.189 593.589C763.75 593.187 766.201 592.889 767.72 592.304C768.456 592.02 768.954 591.674 769.362 591.221C769.778 590.758 770.12 590.162 770.515 589.34C770.952 588.402 771.509 586.294 772.043 583.59C772.573 580.905 773.071 577.686 773.403 574.567L773.403 574.563C776.888 544.139 791.108 519.242 826.866 480.815C835.674 471.206 844.977 460.437 847.351 456.876L847.351 456.875C862.089 434.869 870.426 421.477 875.371 409.398C880.307 397.339 881.869 386.57 883.001 369.788C884.734 342.594 884.462 332.259 881.414 319.537C877.304 302.567 870.15 289.166 852.975 267.464L852.973 267.461C844.907 257.129 839.634 250.966 833.861 246.103C828.092 241.243 821.804 237.665 811.676 232.534C799.653 226.556 783.96 221.335 769.172 217.958C754.365 214.577 740.547 213.064 732.249 214.447L732.241 214.448C730.922 214.646 729.605 214.91 728.573 215.172C728.056 215.303 727.619 215.432 727.292 215.549C727.128 215.608 727 215.661 726.906 215.708C726.892 215.714 726.88 215.721 726.869 215.727C726.864 215.756 726.86 215.79 726.855 215.83C726.831 216.023 726.807 216.308 726.783 216.685C726.733 217.435 726.684 218.524 726.635 219.915C726.537 222.696 726.442 226.672 726.35 231.546C726.167 241.294 726 254.626 725.867 269.158C725.835 273.863 725.8 278.156 725.768 282.079C725.701 290.387 725.648 297.029 725.66 302.373C725.679 310.248 725.842 315.273 726.312 318.652C726.78 322.019 727.544 323.672 728.706 324.868C729.299 325.477 730.013 325.986 730.899 326.542C731.273 326.777 731.671 327.016 732.1 327.275C732.181 327.323 732.262 327.372 732.344 327.422C732.866 327.736 733.43 328.079 734.036 328.466L734.037 328.467C738.046 331.049 740.66 333.997 742.237 338.367C743.802 342.705 744.333 348.414 744.267 356.489ZM744.267 356.489C744.267 356.489 744.267 356.488 744.267 356.487H743.767M744.267 356.489C744.267 356.49 744.267 356.491 744.267 356.491L743.767 356.487M743.767 356.487C743.767 372.087 742.167 379.287 737.233 385.954C735.5 388.487 732.433 393.42 730.433 397.154L743.767 356.487Z" fill="#E9E8E8" stroke="#9E9696"/>
</svg>
