<svg width="40" height="40" viewBox="0 0 40 40"
    xmlns="http://www.w3.org/2000/svg">
    <g>
        <path fill-rule="evenodd" clip-rule="evenodd" d="M12.8767 40.0222C12.8665 39.9297 12.8658 39.8372 12.8658 39.7446C12.8657 39.4309 12.8657 39.1172 12.8657 38.8035C12.8658 38.3135 12.8658 37.8236 12.8656 37.3336C12.8656 37.2411 12.8681 37.1495 12.8863 37.0577C12.9174 36.9016 12.9065 36.7452 12.8955 36.5888V36.5885L12.8955 36.5885C12.8907 36.5199 12.8859 36.4514 12.8847 36.3829C12.8822 36.2499 12.8674 36.118 12.8527 35.9862L12.8527 35.9862C12.8374 35.8497 12.8221 35.7133 12.8205 35.5757C12.8195 35.4922 12.7949 35.414 12.7702 35.3359C12.7537 35.2835 12.7372 35.2311 12.7278 35.1771C12.7039 35.0392 12.6436 34.9166 12.5833 34.7941C12.554 34.7346 12.5248 34.6751 12.4997 34.6139C12.4385 34.4647 12.332 34.3572 12.2197 34.2502C12.2004 34.2319 12.181 34.2137 12.1616 34.1954C12.0654 34.105 11.9693 34.0146 11.8868 33.9092C11.8101 33.8111 11.7145 33.7284 11.6055 33.6612C10.4397 32.9425 9.3828 32.0881 8.43623 31.0986C7.62766 30.2534 6.91019 29.3363 6.29013 28.3438C6.25887 28.2937 6.22864 28.243 6.19985 28.1915C6.15493 28.1111 6.17056 28.0369 6.24071 27.9741C6.32069 27.9025 6.41178 27.8477 6.50287 27.7929L6.50289 27.7929L6.50292 27.7929L6.503 27.7928L6.50341 27.7925L6.50344 27.7925C6.54499 27.7675 6.58654 27.7425 6.62701 27.7159C6.81294 27.5937 7.01208 27.4962 7.21634 27.4092C7.25379 27.3932 7.27821 27.3766 7.27739 27.3303C7.27574 27.2376 7.27604 27.1449 7.27635 27.0531V27.0524C7.27647 27.0164 7.27659 26.9805 7.27659 26.9448C7.27559 26.9444 7.27461 26.944 7.27366 26.9437C7.25915 26.938 7.25024 26.9345 7.24046 26.943C7.11831 27.0482 6.97191 27.1095 6.82586 27.1707L6.8141 27.1756C6.71688 27.2164 6.6284 27.2721 6.53992 27.3278L6.5396 27.328L6.53958 27.328C6.4843 27.3629 6.42903 27.3977 6.37162 27.4288C6.33475 27.4489 6.29956 27.4719 6.26435 27.4949C6.23448 27.5145 6.2046 27.5341 6.17368 27.5518C6.13035 27.5766 6.10746 27.6067 6.11334 27.6585C6.11592 27.6812 6.11526 27.7043 6.1146 27.7273L6.1146 27.7274C6.11449 27.7311 6.11439 27.7348 6.1143 27.7385C6.11413 27.7452 6.11401 27.7518 6.11401 27.7585L6.11401 28.4258C6.114 31.5403 6.114 34.6548 6.11392 37.7693L6.11392 37.777L6.11394 37.7872C6.11401 37.8219 6.11408 37.8568 6.11176 37.8914C6.10857 37.939 6.07882 37.9689 6.03335 37.9689C5.98783 37.9689 5.95823 37.9389 5.95507 37.8913C5.95275 37.8562 5.95281 37.821 5.95287 37.7858V37.7858L5.95289 37.7692C5.95282 34.871 5.95282 31.9728 5.95282 29.0746L5.95282 27.7276C5.95284 27.7008 5.95286 27.674 5.95256 27.6472C5.95235 27.6288 5.95041 27.6126 5.93243 27.5996C5.81282 27.5131 5.7384 27.3919 5.6715 27.2634C4.96864 25.9134 4.46505 24.4926 4.16202 23.0014C4.02484 22.3263 3.93347 21.6446 3.88333 20.9571C3.82854 20.2059 3.82121 19.4543 3.87279 18.7036C4.09039 15.5365 5.12746 12.6638 7.01936 10.1133C9.00191 7.44062 11.5719 5.5495 14.7089 4.43455C15.624 4.10932 16.5635 3.87772 17.5232 3.72692C18.2081 3.6193 18.8967 3.55604 19.5893 3.53464C19.7154 3.53074 19.7586 3.5581 19.8014 3.65486C19.8123 3.67958 19.8156 3.7043 19.8151 3.73037C19.8138 3.79747 19.817 3.86446 19.8203 3.93141C19.8224 3.97536 19.8245 4.0193 19.8254 4.06325C19.8266 4.12588 19.8279 4.18851 19.8291 4.25114L19.8292 4.25162L19.8292 4.25179L19.8292 4.25196C19.8362 4.59992 19.8433 4.94798 19.838 5.2958C19.8357 5.44402 19.8283 5.59231 19.8209 5.74064C19.8158 5.84355 19.8106 5.94649 19.8072 6.04943C19.8068 6.06184 19.8061 6.07436 19.8053 6.08691L19.8053 6.08696V6.08698C19.8029 6.12674 19.8005 6.16679 19.8087 6.20436C19.8261 6.28477 19.8281 6.36579 19.83 6.44671C19.8311 6.49126 19.8322 6.53578 19.8358 6.58015C19.8498 6.74949 19.7357 6.85148 19.5557 6.8674C19.4346 6.87811 19.3132 6.88604 19.1918 6.89396L19.1918 6.89397C19.0399 6.90388 18.8879 6.9138 18.7364 6.92919C18.0207 7.00186 17.3164 7.13291 16.6235 7.32601C12.7738 8.39892 9.6365 11.1893 8.12487 14.8854C7.74812 15.8066 7.48411 16.7589 7.32889 17.7423C7.19446 18.594 7.14726 19.4506 7.18368 20.3108C7.26408 22.2093 7.7396 24.0046 8.61313 25.6934C8.61812 25.703 8.6232 25.7126 8.62829 25.7223L8.62829 25.7223C8.64916 25.7618 8.67011 25.8015 8.68501 25.8432C8.72842 25.9648 8.68977 26.0639 8.57789 26.1321C8.51315 26.1715 8.45191 26.2161 8.39067 26.2608C8.31132 26.3186 8.23197 26.3764 8.14505 26.4229C8.11575 26.4386 8.10263 26.4603 8.10292 26.4939C8.10367 26.5821 8.10354 26.6704 8.10342 26.7583V26.7592C8.10337 26.7924 8.10332 26.8255 8.10332 26.8586C8.13855 26.8663 8.16141 26.8513 8.18312 26.8371L8.18315 26.837C8.18573 26.8353 8.18829 26.8337 8.19085 26.832C8.1941 26.83 8.19735 26.828 8.20065 26.8262C8.36911 26.7328 8.53206 26.6312 8.68612 26.5148C8.79445 26.433 8.90959 26.41 9.03468 26.4899C9.0785 26.518 9.10349 26.5554 9.12867 26.5957C9.55992 27.2851 10.0502 27.9298 10.6052 28.524C12.3756 30.4195 14.5187 31.6833 17.0378 32.3045C17.6348 32.4518 18.241 32.5478 18.8538 32.6044C19.5078 32.6648 20.1623 32.6763 20.8179 32.6411L20.8185 32.641C20.9198 32.6356 20.9205 32.6355 20.9207 32.5335C20.9208 32.465 20.9211 32.3965 20.9214 32.328V32.3278C20.9223 32.1445 20.9232 31.9612 20.9198 31.778C20.9168 31.6195 20.9228 31.4614 20.9287 31.3032V31.3028C20.9329 31.1911 20.9371 31.0793 20.9381 30.9674L20.9382 30.9646C20.9386 30.914 20.9391 30.8643 20.9173 30.8152C20.9009 30.7782 20.902 30.7381 20.9032 30.698C20.9036 30.682 20.9041 30.666 20.9034 30.6503C20.8926 30.3903 20.8483 30.1375 20.7396 29.8987C20.716 29.8469 20.6809 29.8033 20.6458 29.7598C20.6322 29.7429 20.6187 29.726 20.6057 29.7087C20.5878 29.6846 20.5652 29.6846 20.5415 29.6845L20.5385 29.6845L20.5366 29.6845C20.4625 29.684 20.3884 29.684 20.3144 29.684C19.4848 29.684 18.6552 29.6841 17.8255 29.6842C17.7104 29.6843 17.6829 29.6657 17.6459 29.5602C17.6169 29.4777 17.6168 29.392 17.6167 29.3066L17.6167 29.2945L17.6167 29.2853C17.6167 29.2781 17.6166 29.2708 17.6165 29.2636C17.6155 29.163 17.6164 29.0624 17.6174 28.9619V28.9617C17.6179 28.9068 17.6184 28.8519 17.6186 28.7971L17.6186 28.7961C17.6188 28.7447 17.6189 28.6931 17.6034 28.643C17.5944 28.6143 17.5955 28.5847 17.5989 28.5549C17.6346 28.2341 17.6244 27.9131 17.6043 27.5919C17.6006 27.533 17.5998 27.4732 17.605 27.4144C17.6223 27.2163 17.6192 27.0179 17.6161 26.8197V26.8196C17.6144 26.7148 17.6128 26.61 17.6141 26.5052C17.6163 26.3381 17.6167 26.171 17.6171 26.004C17.6174 25.8417 17.6178 25.6794 17.6198 25.5171C17.6212 25.4101 17.6788 25.3574 17.7888 25.3525C17.8354 25.3505 17.8821 25.3512 17.9289 25.3519H17.929C17.9526 25.3522 17.9762 25.3526 17.9998 25.3526C18.0811 25.3526 18.1623 25.3526 18.2436 25.3526L18.4192 25.3525C18.809 25.3524 19.1989 25.3523 19.5886 25.3535C19.625 25.3537 19.6607 25.3484 19.6964 25.3431L19.6964 25.3431C19.7409 25.3365 19.7854 25.3299 19.8311 25.3339C19.8569 25.3361 19.8826 25.3389 19.9084 25.3417H19.9084C19.9743 25.349 20.0401 25.3562 20.1071 25.3531C20.5066 25.3349 20.9065 25.3273 21.3063 25.3321C21.391 25.3331 21.4757 25.3382 21.5605 25.3432H21.5608C21.6748 25.35 21.7889 25.3569 21.9034 25.3539C21.9704 25.3521 22.0265 25.4049 22.0243 25.4709C22.0225 25.5296 22.0253 25.5881 22.0282 25.6467V25.6467C22.0323 25.7279 22.0363 25.8091 22.0275 25.8904C22.0267 25.8981 22.0264 25.9058 22.0264 25.9136C22.0263 25.9194 22.0264 25.9252 22.0265 25.9309C22.0266 25.9359 22.0267 25.9409 22.0267 25.9459L22.0266 26.5769C22.0264 27.5507 22.0263 28.5244 22.0257 29.4982C22.0257 29.5071 22.0262 29.5162 22.0267 29.5253C22.0286 29.5604 22.0305 29.5959 22.0043 29.6262C21.9682 29.6679 21.9235 29.6857 21.8673 29.6847C21.8123 29.6837 21.7572 29.6841 21.7022 29.6846C21.6313 29.6852 21.5604 29.6858 21.4896 29.6833C21.4036 29.6802 21.3491 29.7177 21.3123 29.7903C21.3057 29.8034 21.2993 29.8167 21.293 29.8301C21.2677 29.8833 21.2424 29.9365 21.1961 29.9773C21.1719 29.9987 21.175 30.0288 21.1779 30.0568C21.1784 30.062 21.1789 30.0671 21.1793 30.0721C21.1869 30.182 21.1654 30.2846 21.1178 30.3839C21.0956 30.4301 21.0824 30.4797 21.0826 30.5336C21.0833 30.8174 21.0784 31.1012 21.0735 31.385C21.067 31.7638 21.0605 32.1427 21.0673 32.5217C21.0673 32.5238 21.0673 32.5259 21.0673 32.5281C21.0673 32.5301 21.0672 32.5321 21.0672 32.5342C21.0671 32.5364 21.067 32.5387 21.0669 32.541L21.0669 32.5411C21.0661 32.5644 21.0652 32.5895 21.0795 32.6207C21.111 32.6182 21.143 32.6159 21.1753 32.6136L21.1758 32.6135L21.176 32.6135H21.1761C21.2469 32.6084 21.319 32.6032 21.3909 32.5955C22.128 32.5171 22.8551 32.3852 23.568 32.18C26.2172 31.4175 28.4031 29.9567 30.1375 27.8168C30.4245 27.4628 30.6897 27.0927 30.9329 26.7073C30.9938 26.6108 31.0799 26.564 31.1869 26.5526C31.3056 26.5399 31.4201 26.5452 31.5244 26.6228C31.5845 26.6675 31.6496 26.7055 31.7199 26.7464L31.7199 26.7465C31.7525 26.7654 31.7862 26.7851 31.821 26.8063L31.8209 26.6868C31.8209 26.5848 31.8209 26.4875 31.821 26.3903C31.821 26.3591 31.7997 26.3474 31.7784 26.3358C31.7741 26.3334 31.7697 26.3311 31.7656 26.3286C31.7518 26.3202 31.738 26.3119 31.7241 26.3037L31.7151 26.2983C31.7085 26.2944 31.7018 26.2905 31.6952 26.2865L31.6951 26.2865L31.6947 26.2862C31.6451 26.2569 31.5955 26.2276 31.5478 26.1955C31.4091 26.1025 31.3755 25.9669 31.4538 25.8198C31.9851 24.8221 32.3791 23.773 32.6328 22.6714C32.7524 22.1518 32.8378 21.6266 32.8931 21.096C32.9516 20.535 32.9703 19.9729 32.9557 19.4098C32.9142 17.8057 32.5857 16.2626 31.9661 14.7818C30.4727 11.2128 27.4302 8.48193 23.7227 7.38537C23.0262 7.17936 22.3169 7.03422 21.5949 6.95098C21.2305 6.90898 20.8653 6.88187 20.4989 6.86774C20.4971 6.86767 20.4953 6.86761 20.4935 6.86755C20.4912 6.86747 20.489 6.86741 20.4868 6.86734H20.4867C20.4685 6.86677 20.4502 6.8662 20.4325 6.86287C20.2471 6.82801 20.2031 6.77735 20.2082 6.60846C20.2117 6.49278 20.2041 6.37778 20.1964 6.26283C20.1916 6.18979 20.1867 6.11677 20.1847 6.0436C20.1799 5.86774 20.1919 5.69234 20.2039 5.51695V5.5164C20.2179 5.31153 20.2319 5.10667 20.2191 4.90108C20.2072 4.70757 20.2067 4.51395 20.2062 4.32033C20.206 4.22526 20.2058 4.13019 20.2042 4.03513C20.2034 3.9904 20.1988 3.94587 20.1942 3.90128C20.1882 3.84289 20.1822 3.7844 20.1847 3.72525C20.1906 3.59103 20.2411 3.53611 20.374 3.53324C20.6151 3.52803 20.8557 3.54383 21.0959 3.5596L21.0967 3.55965C21.1111 3.5606 21.1255 3.56154 21.1399 3.56248C21.5351 3.5883 21.9289 3.62946 22.3215 3.68384C23.1658 3.80081 23.9958 3.98231 24.8104 4.23271C29.4808 5.66847 33.2469 9.10939 35.0961 13.6292C35.5332 14.6974 35.8485 15.8004 36.0493 16.9372C36.2504 18.0757 36.3284 19.2228 36.2834 20.3767C36.1857 22.8792 35.5493 25.2375 34.3641 27.4458C34.2875 27.5885 34.1834 27.6232 34.0324 27.5705C33.7656 27.4774 33.5282 27.3302 33.2907 27.183L33.2907 27.183L33.29 27.1826L33.251 27.1585C33.2403 27.1518 33.2295 27.1451 33.2188 27.1385L33.2023 27.1284C33.196 27.1245 33.1897 27.1206 33.1834 27.1167L33.1833 27.1166C33.1551 27.0991 33.1269 27.0816 33.0974 27.0666C33.0943 27.0651 33.0912 27.0633 33.088 27.0614C33.0723 27.0522 33.0546 27.0419 33.0247 27.0541C33.0247 27.0814 33.0247 27.1089 33.0248 27.1366L33.0248 27.1529V27.1533C33.025 27.2417 33.0252 27.3318 33.0241 27.422C33.0237 27.4568 33.0407 27.476 33.0678 27.4922C33.114 27.5199 33.1599 27.5483 33.2059 27.5766L33.206 27.5767C33.3743 27.6807 33.5429 27.7848 33.7271 27.8564C33.9561 27.9454 33.9472 28.1467 33.8731 28.2899C33.8188 28.3947 33.7525 28.4935 33.6863 28.592L33.6861 28.5922C33.6676 28.6198 33.6491 28.6473 33.6309 28.675C32.4425 30.4788 30.9498 31.9833 29.171 33.2061C28.9514 33.3571 28.7307 33.5066 28.5016 33.6428C28.4192 33.6918 28.3542 33.7535 28.3074 33.835C28.2734 33.8943 28.2315 33.9473 28.1894 34.0005C28.1833 34.0082 28.1773 34.0158 28.1712 34.0235C27.7468 34.5636 27.5216 35.172 27.5457 35.8648C27.5583 36.2246 27.6049 36.5803 27.6783 36.9324C27.7084 37.0769 27.7045 37.2187 27.6692 37.3607C27.6328 37.5077 27.4385 37.6515 27.2892 37.6472C27.2146 37.645 27.1604 37.6135 27.1265 37.5502C27.0654 37.436 27.0141 37.3221 27.0171 37.1841C27.0221 36.9532 27.037 36.7277 27.1307 36.5114C27.1501 36.4665 27.1552 36.4154 27.1603 36.3642C27.1627 36.3404 27.1651 36.3166 27.1689 36.2934C27.227 35.9408 27.215 35.586 27.2031 35.2312V35.2311L27.2027 35.2191C27.1987 35.1015 27.1561 34.993 27.0965 34.8955C27.0479 34.8159 26.9635 34.7592 26.8757 34.7396C26.717 34.7042 26.5589 34.7045 26.3963 34.7601C26.2339 34.8156 26.0745 34.8786 25.9152 34.9415C25.7827 34.9939 25.6502 35.0463 25.516 35.0943C24.563 35.4356 23.5888 35.6919 22.5885 35.8489C22.3693 35.8833 22.1497 35.9142 21.9295 35.941C21.8295 35.9532 21.8294 35.9539 21.8084 36.0464L21.8083 36.0468C21.7895 36.1295 21.7683 36.2117 21.7471 36.2939C21.7009 36.473 21.6547 36.6522 21.6336 36.8369C21.6276 36.889 21.6219 36.9412 21.6162 36.9933C21.5981 37.1583 21.5799 37.3233 21.5545 37.4871C21.5148 37.7438 21.499 38.0014 21.5 38.2604C21.5004 38.3495 21.4886 38.4372 21.4768 38.525C21.4669 38.5985 21.457 38.6721 21.4542 38.7465C21.4461 38.9642 21.447 39.1819 21.4479 39.3995C21.4485 39.5373 21.4491 39.6752 21.4474 39.8129C21.447 39.8397 21.447 39.8665 21.447 39.894V39.8943C21.447 39.9314 21.4469 39.9699 21.4461 40.0119C21.3847 40.0222 21.3247 40.0222 21.2546 40.0222C21.233 40.0076 21.221 39.9923 21.2192 39.9737C21.204 39.818 21.1807 39.6632 21.1578 39.5114L21.1578 39.5114C21.134 39.3532 21.1106 39.1982 21.0975 39.0489C21.0976 39.06 21.0977 39.0712 21.0978 39.0825C21.0989 39.1802 21.1 39.2849 21.1111 39.3893C21.1263 39.5314 21.1239 39.6736 21.1214 39.8159L21.1214 39.8163C21.1207 39.8586 21.1199 39.9009 21.1197 39.9432C21.1195 39.9654 21.1133 39.987 21.0951 40.0142C20.9183 40.0222 20.7474 40.0222 20.5662 40.0222C20.4973 39.9236 20.4919 39.8136 20.4865 39.7048C20.485 39.6739 20.4835 39.6432 20.4805 39.6128C20.4587 39.3885 20.4591 39.1634 20.4595 38.9383V38.9382C20.4598 38.7788 20.4601 38.6194 20.4525 38.4604C20.4163 37.7035 20.369 36.9467 20.1913 36.2057C20.1906 36.2029 20.1901 36.2002 20.1895 36.1974L20.1895 36.1973C20.1893 36.1962 20.1891 36.1951 20.1889 36.194L20.1887 36.1932C20.1885 36.1922 20.1883 36.1912 20.1881 36.1902C20.1876 36.1881 20.1871 36.1861 20.1864 36.184C20.1855 36.181 20.1845 36.1778 20.1836 36.1746C20.1832 36.1728 20.1827 36.171 20.1822 36.1692C20.1816 36.1669 20.181 36.1646 20.1804 36.1623C20.171 36.1257 20.1612 36.0875 20.1117 36.09C20.0562 36.0929 20.0567 36.136 20.0572 36.174V36.1741L20.0573 36.1793C20.0573 36.1817 20.0573 36.1841 20.0573 36.1864C20.0573 36.1886 20.0573 36.1907 20.0572 36.1928C20.049 36.4407 20.0553 36.6886 20.0877 36.9345C20.1033 37.0531 20.1191 37.1717 20.1348 37.2903C20.2155 37.8974 20.2962 38.5044 20.3598 39.1136C20.3859 39.3635 20.4045 39.6141 20.4111 39.8654C20.4111 39.8683 20.4112 39.8713 20.4113 39.8743C20.4126 39.9191 20.414 39.9653 20.384 40.0141C20.3326 40.0222 20.2872 40.0222 20.2322 40.0222C20.196 39.9925 20.1921 39.9561 20.1901 39.9186C20.1436 39.0682 20.0372 38.2244 19.9131 37.3823C19.8678 37.0751 19.8303 36.7662 19.8335 36.4543C19.8341 36.3951 19.8261 36.3368 19.8181 36.278L19.8181 36.2779C19.8141 36.2487 19.8101 36.2193 19.8071 36.1896C19.6758 36.2581 19.6156 36.3562 19.6034 36.506C19.5889 36.6843 19.59 36.8623 19.591 37.0402V37.0403C19.5915 37.1284 19.592 37.2166 19.5906 37.3047C19.5902 37.3344 19.5929 37.3647 19.6029 37.3925C19.6686 37.5756 19.7001 37.7664 19.7316 37.9569C19.7423 38.0219 19.7531 38.0868 19.7652 38.1514C19.7862 38.2642 19.7864 38.3819 19.7866 38.4992C19.7867 38.5378 19.7868 38.5763 19.7876 38.6145C19.7926 38.855 19.7952 39.0959 19.7868 39.3362C19.7839 39.4199 19.7977 39.5016 19.8115 39.5832C19.8274 39.6766 19.8431 39.7698 19.8337 39.8656C19.8325 39.8775 19.8322 39.8896 19.8319 39.9018C19.831 39.938 19.83 39.9754 19.8061 40.0143C19.6146 40.0222 19.4289 40.0222 19.2328 40.0222C19.1629 39.8978 19.158 39.7637 19.1531 39.6308C19.1519 39.5981 19.1507 39.5655 19.1485 39.5331C19.13 39.2566 19.1591 38.9803 19.188 38.7057L19.188 38.705C19.1909 38.6784 19.1937 38.6518 19.1964 38.6253C19.2205 38.3929 19.2029 38.1672 19.1657 37.9406C19.1423 37.7981 19.144 37.655 19.1458 37.5121C19.1463 37.4738 19.1467 37.4356 19.1467 37.3973C19.1467 37.265 19.1231 37.1395 19.0638 37.0214C19.0169 36.928 18.986 36.828 18.9639 36.7275C18.9186 36.5212 18.8039 36.3536 18.689 36.1856C18.6727 36.1617 18.6563 36.1378 18.6402 36.1138C18.5932 36.0441 18.5274 36.0155 18.4437 36.0072C17.4907 35.9127 16.5533 35.7347 15.6318 35.474C15.2352 35.3618 14.8462 35.2261 14.4572 35.0904L14.4571 35.0903C14.4196 35.0773 14.3821 35.0642 14.3446 35.0511C14.0643 34.9535 13.7966 35.0009 13.5698 35.2061C13.5003 35.269 13.4462 35.3436 13.4273 35.4391C13.4172 35.4901 13.402 35.5408 13.3741 35.5846C13.2166 35.8313 13.195 36.113 13.1738 36.3903L13.1701 36.438C13.156 36.6186 13.1594 36.8005 13.1627 36.9825L13.1627 36.9827C13.1643 37.0677 13.1659 37.1527 13.1656 37.2376C13.165 37.5078 13.1526 37.7776 13.1401 38.0474L13.1401 38.0474C13.1274 38.3245 13.1147 38.6017 13.1146 38.8794C13.1146 39.0388 13.105 39.1984 13.0954 39.3581L13.0954 39.3581C13.0848 39.5345 13.0742 39.7111 13.0764 39.8879L13.0765 39.8933C13.0771 39.9321 13.0776 39.9718 13.0504 40.0144C12.992 40.0222 12.9393 40.0222 12.8767 40.0222ZM32.2269 26.6023C32.2482 26.5849 32.2664 26.5921 32.2813 26.6017C32.3564 26.6502 32.435 26.6926 32.5137 26.735C32.6102 26.7871 32.7069 26.8392 32.7971 26.9026C32.8457 26.9367 32.8644 26.9719 32.8621 27.0299C32.8591 27.1042 32.8597 27.1787 32.8604 27.255V27.2559L32.8604 27.2569V27.2569C32.8606 27.289 32.8609 27.3214 32.8609 27.3542C32.8007 27.353 32.7568 27.3261 32.7143 27.3001C32.7108 27.298 32.7074 27.2959 32.7039 27.2937C32.6617 27.2681 32.6203 27.2412 32.5788 27.2143C32.4811 27.1507 32.3834 27.0872 32.2755 27.041C32.2309 27.0219 32.222 26.9882 32.2232 26.9431C32.2247 26.8848 32.225 26.8265 32.2252 26.7669C32.2255 26.7133 32.2257 26.6588 32.2269 26.6023ZM31.9867 26.8472C31.9869 26.8931 32.0068 26.9174 32.0592 26.8942C32.0616 26.8078 32.0621 26.7268 32.0626 26.6471L32.0626 26.6446C32.0628 26.6211 32.0629 26.5977 32.0631 26.5743C32.0635 26.5258 32.0556 26.4861 31.9865 26.4898C31.9865 26.5246 31.9865 26.5591 31.9864 26.5934V26.5946C31.9864 26.6796 31.9863 26.7634 31.9867 26.8472ZM20.3989 36.1086C20.3988 36.1056 20.3988 36.1026 20.399 36.0995C20.3947 36.0769 20.3902 36.0606 20.3744 36.0587C20.353 36.0561 20.3551 36.0762 20.3576 36.0874C20.3628 36.1116 20.3697 36.1354 20.3771 36.1609L20.3771 36.161L20.3772 36.1612C20.3787 36.1665 20.3802 36.1719 20.3818 36.1773C20.3832 36.1824 20.3847 36.1876 20.3862 36.1929C20.4069 36.1717 20.4041 36.1516 20.4011 36.1296C20.4002 36.1228 20.3992 36.1158 20.3989 36.1086ZM21.2871 38.8079L21.2871 38.3333C21.2871 38.3143 21.2872 38.2954 21.2873 38.2766V38.2765C21.2882 38.0529 21.2891 37.8382 21.2312 37.6278C21.2169 37.5757 21.2171 37.5215 21.2173 37.4674L21.2173 37.4604C21.2173 37.4573 21.2173 37.4542 21.2173 37.4511C21.2176 37.1345 21.2176 36.818 21.2176 36.5014C21.2176 36.3995 21.2176 36.2976 21.2176 36.1956L21.2176 36.0516C21.1574 36.1481 21.0952 36.2042 21.0247 36.2516C20.9918 36.2738 20.9825 36.3059 20.9756 36.3452C20.958 36.4448 20.9596 36.5448 20.9612 36.6446V36.6447C20.9622 36.6999 20.9631 36.7552 20.9607 36.8104C20.9585 36.863 20.9679 36.9127 20.9859 36.9624C21.0278 37.0778 21.056 37.1956 21.0465 37.3204C21.0379 37.4331 21.047 37.5452 21.056 37.6573C21.0622 37.7333 21.0683 37.8093 21.069 37.8855C21.0691 37.9027 21.0748 37.9199 21.0805 37.937C21.083 37.9447 21.0855 37.9525 21.0876 37.9602L21.092 37.977C21.1369 38.1464 21.1817 38.3157 21.2057 38.4901C21.2205 38.5978 21.2375 38.7062 21.2871 38.8079ZM20.8663 39.2332C20.8629 39.239 20.8631 39.2466 20.8633 39.2531C20.8635 39.2637 20.8637 39.2717 20.8485 39.2651C20.8402 39.2615 20.8365 39.2392 20.8366 39.2254C20.8372 39.0781 20.8111 38.9343 20.7849 38.7905C20.7787 38.7566 20.7726 38.7227 20.7668 38.6888L20.7658 38.683L20.7657 38.6826L20.7656 38.6823C20.7628 38.6663 20.76 38.6501 20.76 38.6341C20.7597 38.3025 20.7597 37.9709 20.7597 37.626L20.7597 37.4264C20.8414 37.6069 20.8811 37.776 20.883 37.9514C20.8869 38.2949 20.8852 38.6384 20.8834 38.9819C20.8831 39.0384 20.8781 39.0949 20.8729 39.1542L20.8729 39.1544L20.8729 39.1545L20.8729 39.1546C20.8706 39.1802 20.8683 39.2063 20.8663 39.2332ZM7.57873 26.8742C7.57874 26.9186 7.57875 26.963 7.57876 27.0178C7.58004 27.0348 7.57951 27.051 7.57901 27.0666C7.57797 27.0985 7.57701 27.1281 7.59142 27.1585C7.60141 27.1526 7.61135 27.1466 7.62122 27.1407C7.63899 27.13 7.65657 27.1195 7.67399 27.109L7.67507 27.1084C7.74911 27.0639 7.82044 27.0211 7.89209 26.9789C7.91537 26.9652 7.9346 26.9519 7.93439 26.9206C7.93379 26.8333 7.93388 26.746 7.93398 26.6549V26.6547C7.93401 26.62 7.93405 26.5849 7.93405 26.5489C7.84693 26.575 7.77848 26.6102 7.71101 26.6465C7.57871 26.7176 7.57871 26.7189 7.57873 26.8724V26.8742ZM20.7802 39.8276C20.7939 39.8488 20.8021 39.8617 20.8054 39.8757C20.8104 39.8971 20.8039 39.9213 20.7874 39.9824C20.774 39.9235 20.7745 39.8792 20.7802 39.8276L20.7802 39.8276ZM20.9171 39.5404C20.9201 39.5469 20.9253 39.5523 20.9333 39.5606C20.9335 39.556 20.9337 39.5517 20.934 39.5477L20.934 39.5477L20.934 39.5476C20.9349 39.5324 20.9355 39.5209 20.934 39.5096C20.9337 39.5076 20.9336 39.5054 20.9337 39.5032C20.9337 39.5016 20.9338 39.4999 20.9338 39.4983C20.9344 39.4866 20.9349 39.4742 20.9185 39.4681C20.9132 39.5128 20.9114 39.5284 20.9171 39.5404ZM20.576 36.1394C20.5981 36.1535 20.6057 36.168 20.5897 36.1847C20.5821 36.1926 20.5714 36.196 20.5636 36.1851C20.5518 36.1686 20.5546 36.1526 20.576 36.1394ZM20.858 36.1496C20.8516 36.1325 20.8372 36.1347 20.8242 36.1549C20.8238 36.1715 20.8243 36.1856 20.8376 36.1827C20.8527 36.1793 20.8635 36.164 20.858 36.1496Z" />
        <path d="M18.0599 16.5968C18.1277 16.5785 18.1953 16.5598 18.2715 16.5386C18.3724 16.5087 18.4611 16.4727 18.5459 16.4265C18.6768 16.3552 18.7448 16.257 18.7444 16.0976C18.7435 15.731 18.7668 15.365 18.8454 15.0051C18.8985 14.7617 18.972 14.5258 19.1125 14.3164C19.2528 14.1075 19.4389 13.9655 19.694 13.9281C19.8046 13.9119 19.889 13.871 19.89 13.693C19.8925 13.2229 19.8956 12.7529 19.9058 12.2828C19.9163 11.8025 19.9122 11.3217 19.9081 10.8412C19.9078 10.8033 19.9075 10.7654 19.9071 10.7275C19.9071 10.7173 19.907 10.7071 19.9069 10.6969C19.9048 10.4315 19.9027 10.165 19.8294 9.90601C19.8278 9.90021 19.8262 9.89432 19.8247 9.88842C19.8141 9.84823 19.8034 9.80723 19.7597 9.7868C19.6759 9.74753 19.592 9.71335 19.4953 9.71424C19.2096 9.71687 18.9251 9.73514 18.6438 9.78318C17.614 9.95908 16.6869 10.3728 15.8571 11.0048C15.5793 11.2164 15.3222 11.4538 15.12 11.7397C14.9371 11.9984 14.7611 12.2619 14.5852 12.5255C14.5022 12.6498 14.4193 12.7741 14.3356 12.8978C14.3101 12.9355 14.2953 12.9747 14.2885 13.0202C14.2461 13.3056 14.1959 13.5897 14.1311 13.8709C14.0747 14.1159 14.0165 14.3614 13.9008 14.5869L13.8975 14.5933C13.8637 14.6591 13.8347 14.7153 13.8886 14.7863C13.9152 14.8214 13.9135 14.867 13.9119 14.9108L13.9119 14.9111C13.9117 14.9162 13.9115 14.9213 13.9113 14.9264C13.9052 15.1422 13.8635 15.3522 13.8081 15.5601C13.8074 15.5626 13.8067 15.5652 13.806 15.5678L13.8056 15.5693C13.7922 15.6195 13.7789 15.6692 13.7827 15.7233C13.8092 16.1012 13.9947 16.3612 14.3507 16.4961C14.6147 16.5961 14.8904 16.6211 15.1693 16.6145C15.2637 16.6123 15.3579 16.605 15.4521 16.5978L15.4522 16.5978C15.5167 16.5928 15.5813 16.5878 15.6459 16.5845C15.7272 16.5802 15.8086 16.5771 15.8901 16.574H15.8904C16.0124 16.5694 16.1344 16.5648 16.2561 16.5563C16.2994 16.5533 16.3392 16.5675 16.3781 16.5813C16.4195 16.596 16.4597 16.6103 16.502 16.6032C16.5315 16.5982 16.5607 16.591 16.5899 16.5837C16.6427 16.5706 16.6957 16.5575 16.7514 16.5576C17.0958 16.5584 17.4402 16.5581 17.7846 16.5576L17.7883 16.5576C17.8246 16.5575 17.861 16.5574 17.8911 16.5796C17.9448 16.619 18.0016 16.6125 18.0599 16.5968Z" />
        <path d="M19.9309 17.5083C20.1629 17.177 20.3725 16.8418 20.5317 16.4773L20.5325 16.4755C20.5427 16.4521 20.5526 16.4294 20.5726 16.4124C20.7772 16.2374 20.8726 16.0018 20.9261 15.7487C20.9969 15.4139 21.0224 15.0748 20.9784 14.7333C20.9589 14.5813 20.9145 14.437 20.833 14.306C20.7352 14.1489 20.5968 14.0397 20.4224 13.9836C20.3111 13.9479 20.2666 13.8695 20.2677 13.7677C20.269 13.6384 20.2673 13.509 20.2657 13.3796C20.2621 13.1055 20.2586 12.8314 20.2837 12.5577C20.287 12.522 20.2868 12.486 20.2866 12.45V12.45C20.2866 12.4415 20.2865 12.433 20.2865 12.4245C20.2866 12.2708 20.2861 12.1172 20.2856 11.9636C20.2844 11.6099 20.2832 11.2561 20.2889 10.9025C20.2912 10.7563 20.2828 10.6107 20.2743 10.4651C20.2658 10.3189 20.2572 10.1728 20.2597 10.0262C20.2628 9.84223 20.3603 9.74787 20.5487 9.74003C20.9399 9.72376 21.3244 9.78105 21.7068 9.84817C22.4519 9.97891 23.1595 10.2196 23.8188 10.5952C24.0443 10.7236 24.2602 10.8661 24.4684 11.0207C24.5225 11.0608 24.5688 11.107 24.6103 11.1599C24.7612 11.3523 24.9125 11.5443 25.0639 11.7362C25.1784 11.8815 25.293 12.0267 25.4073 12.1722C25.8128 12.688 26.0677 13.2728 26.1994 13.9131C26.2554 14.1856 26.2826 14.4616 26.2877 14.7399L26.2877 14.7435C26.2885 14.7871 26.2893 14.8304 26.2612 14.8673C26.2205 14.9207 26.2171 14.9815 26.2166 15.0459C26.216 15.1255 26.2163 15.205 26.2167 15.2846C26.2175 15.4641 26.2183 15.6437 26.208 15.8233C26.1731 16.4355 25.9981 17.0072 25.7204 17.5505C25.5514 17.881 25.3488 18.19 25.1221 18.4835C25.0926 18.5217 25.0678 18.5602 25.0536 18.6081C25.0281 18.6937 24.9757 18.766 24.9238 18.8375L24.9163 18.8478C24.764 19.0581 24.5915 19.2516 24.4165 19.4428C24.3152 19.5535 24.2122 19.6626 24.1092 19.7718L24.1091 19.7718C23.9046 19.9885 23.7001 20.2051 23.5089 20.4341C23.1236 20.8955 22.7712 21.3791 22.501 21.9186C22.3211 22.2776 22.1837 22.651 22.1232 23.0499C22.1049 23.1706 22.0931 23.2921 22.0903 23.4145C22.087 23.5562 22.0553 23.6927 22.0048 23.8251C21.952 23.9635 21.864 24.0358 21.7039 24.0347C21.382 24.0324 21.0599 24.0446 20.7395 24.0839C20.6886 24.0901 20.6358 24.0873 20.5844 24.0828C20.1023 24.0408 19.619 24.0366 19.1357 24.0324H19.1356L19.0195 24.0314C18.9416 24.0307 18.8637 24.0389 18.7909 24.0692C18.7582 24.0827 18.7311 24.0843 18.6965 24.0709C18.5803 24.0259 18.4593 24.0285 18.3384 24.0311C18.3039 24.0318 18.2693 24.0325 18.2349 24.0322C18.2207 24.032 18.1993 24.0343 18.1934 24.0434C18.1524 24.1066 18.1002 24.0909 18.049 24.0754C18.0443 24.074 18.0396 24.0726 18.035 24.0713C18.034 24.071 18.0329 24.0707 18.0319 24.0704C18.0306 24.07 18.0292 24.0696 18.0278 24.0693L18.0269 24.069L18.0255 24.0686C17.8898 24.0326 17.7926 23.9436 17.7129 23.833C17.6208 23.7055 17.5647 23.5609 17.5158 23.413C17.4712 23.278 17.4475 23.1386 17.4237 22.9993C17.4159 22.9531 17.408 22.9069 17.3994 22.8609C17.3853 22.7854 17.3982 22.7105 17.4111 22.6359L17.4112 22.6359C17.4153 22.6117 17.4195 22.5875 17.4228 22.5633C17.5279 21.7814 17.6717 21.0079 17.9345 20.2611C18.0205 20.0167 18.1227 19.7791 18.2452 19.5505C18.2769 19.4912 18.3159 19.4386 18.3618 19.3894C18.918 18.7935 19.454 18.1808 19.9309 17.5083Z" />
    </g>
</svg>
